<?xml version="1.0" standalone="no"?>
<!DOCTYPE svg PUBLIC "-//W3C//DTD SVG 20010904//EN"
 "http://www.w3.org/TR/2001/REC-SVG-20010904/DTD/svg10.dtd">
<svg version="1.0" xmlns="http://www.w3.org/2000/svg"
 width="800.000000pt" height="448.000000pt" viewBox="0 0 800.000000 448.000000"
 preserveAspectRatio="xMidYMid meet">

<g transform="translate(0.000000,448.000000) scale(0.100000,-0.100000)"
fill="#000000" stroke="none">
<path d="M334 4465 c-134 -29 -248 -116 -301 -230 l-28 -60 -3 -527 -3 -528
59 0 c131 0 341 -76 463 -168 231 -173 359 -426 359 -712 0 -346 -194 -652
-508 -801 -86 -41 -238 -79 -313 -79 l-59 0 0 -508 c0 -562 0 -567 64 -667 43
-66 96 -111 176 -149 l65 -31 2733 -3 2732 -2 0 40 0 40 69 0 70 0 3 -37 3
-38 890 0 890 0 66 31 c78 37 136 87 177 152 61 96 62 105 62 662 l0 506 -91
17 c-267 51 -492 213 -617 447 -285 529 24 1175 616 1287 l92 17 0 506 c0 547
-2 565 -55 656 -42 72 -89 118 -157 155 l-63 34 -905 0 -905 0 -3 -182 -2
-183 -70 0 -70 0 0 185 0 185 -2687 -1 c-2192 0 -2699 -3 -2749 -14z m5576
-905 l0 -180 -70 0 -70 0 0 180 0 180 70 0 70 0 0 -180z m0 -730 l0 -180 -70
0 -70 0 0 180 0 180 70 0 70 0 0 -180z m0 -735 l0 -186 -67 3 -68 3 -3 183 -2
182 70 0 70 0 0 -185z m0 -730 l0 -185 -70 0 -70 0 0 178 c0 98 3 182 7 185 3
4 35 7 70 7 l63 0 0 -185z m0 -735 l0 -180 -70 0 -70 0 0 180 0 180 70 0 70 0
0 -180z"/>
</g>
</svg>
