<svg preserveAspectRatio="xMidYMid meet" viewBox="14.2504 18.8 707.214 285.03225806451616" xmlns="http://www.w3.org/2000/svg" version="1.0" style="max-height: 500px" width="707.214" height="285.03225806451616">

<g stroke="none" fill="#000000" transform="translate(0.000000,329.000000) scale(0.100000,-0.100000)">
<path d="M360 3024 c-11 -26 -30 -56 -43 -66 -24 -22 -91 -55 -121 -60 -35 -6&#xA;-43 -34 -18 -67 27 -37 28 -56 2 -88 -26 -34 -26 -98 0 -138 25 -38 25 -66 0&#xA;-88 -28 -23 -28 -104 0 -140 26 -32 25 -59 -1 -83 -18 -16 -20 -27 -17 -72 3&#xA;-30 10 -57 17 -61 21 -13 21 -54 0 -88 -25 -41 -23 -121 4 -148 10 -9 17 -24&#xA;17 -33 0 -18 -19 -54 -20 -37 0 6 -5 3 -10 -5 -21 -32 -9 -131 20 -160 10 -10&#xA;4 -36 -13 -54 -24 -27 -24 -117 1 -139 23 -21 22 -70 -2 -96 -15 -17 -18 -30&#xA;-13 -73 4 -28 12 -55 18 -59 20 -12 19 -62 -2 -85 -16 -17 -20 -32 -17 -73 2&#xA;-28 6 -51 11 -51 4 0 7 -7 7 -15 0 -8 4 -15 8 -15 15 0 7 -48 -10 -67 -25 -27&#xA;-24 -107 0 -131 23 -23 23 -71 0 -94 -25 -25 -24 -94 2 -133 25 -38 25 -57 0&#xA;-80 -22 -20 -26 -58 -7 -72 6 -5 34 -15 61 -21 81 -21 110 -51 140 -145 5 -16&#xA;165 -17 3163 -18 3333 -1 3397 0 3419 8 7 2 18 19 24 36 21 65 85 111 183 131&#xA;22 5 27 12 27 35 0 15 -9 36 -20 46 -25 22 -25 39 -2 73 27 39 28 111 3 144&#xA;-26 33 -26 53 -1 85 27 34 27 102 0 136 -23 29 -22 59 3 88 27 31 22 105 -8&#xA;141 -31 36 -31 39 0 72 35 38 35 106 0 148 -14 16 -25 33 -25 38 0 5 11 22 25&#xA;38 31 37 33 94 5 140 -25 41 -25 63 0 85 27 23 27 101 0 142 -25 38 -25 57 0&#xA;80 25 22 28 100 5 125 -24 26 -25 77 -4 96 27 25 27 114 -1 139 -25 23 -25 56&#xA;0 85 26 30 26 95 0 135 -25 38 -25 56 0 88 28 35 28 117 0 142 -25 23 -25 46&#xA;0 78 11 14 20 37 20 50 0 23 -6 27 -54 37 -79 16 -117 46 -141 108 l-20 52&#xA;-3297 0 -3297 0 -21 -46z m1667 -160 c3 -8 10 -14 15 -14 6 0 8 6 5 13 -8 21&#xA;156 23 200 2 34 -17 61 -12 33 5 -10 7 5 10 48 10 47 0 64 -4 68 -15 4 -8 11&#xA;-15 16 -15 6 0 8 7 4 15 -5 13 6 15 73 13 44 -2 77 -6 75 -10 -2 -4 0 -9 6&#xA;-13 5 -3 10 -1 10 4 0 6 9 11 20 11 11 0 20 -5 20 -11 0 -6 7 -9 15 -5 11 4&#xA;21 -5 32 -29 9 -19 23 -35 30 -35 7 0 16 0 20 -1 4 0 9 4 11 9 2 6 -5 9 -15 8&#xA;-13 -1 -17 5 -15 20 2 12 -4 24 -13 27 -21 9 -19 27 3 27 11 0 24 -10 30 -22&#xA;11 -23 11 -23 11 -1 1 19 7 21 51 21 28 1 50 -4 50 -10 0 -5 7 -7 16 -4 8 3&#xA;12 2 9 -4 -3 -6 5 -10 20 -10 14 0 28 7 31 15 7 18 68 18 97 1 13 -8 20 -8 25&#xA;1 6 9 56 12 185 12 175 0 177 0 178 -22 l0 -22 11 23 c10 19 19 22 70 22 62 0&#xA;82 -16 59 -44 -8 -10 -9 -16 -1 -21 5 -3 10 1 10 10 0 8 7 18 16 22 8 3 13 11&#xA;10 18 -3 10 12 13 57 13 92 1 117 -6 128 -35 7 -20 6 -28 -8 -39 -11 -8 -13&#xA;-13 -5 -14 14 0 52 36 52 50 0 6 -5 9 -12 8 -6 -2 -14 5 -16 15 -2 11 3 17 14&#xA;17 9 0 23 -8 30 -17 13 -17 14 -17 7 1 -6 17 -3 18 23 11 34 -9 37 -9 88 1 31&#xA;6 37 4 31 -6 -6 -10 -4 -11 11 -5 10 4 49 10 85 13 62 4 66 3 72 -19 l6 -23&#xA;23 21 c23 21 29 22 288 19 146 -2 275 -6 287 -9 13 -3 25 -2 28 4 9 13 65 11&#xA;65 -2 0 -7 8 -9 23 -4 37 12 126 15 133 4 3 -5 0 -16 -6 -24 -9 -11 -9 -15 -1&#xA;-15 6 0 17 11 23 25 l11 25 144 -1 c117 0 143 -3 143 -15 0 -18 5 -18 36 3 20&#xA;12 30 14 43 6 11 -7 23 -8 34 -1 25 13 39 1 27 -23 -6 -11 -7 -19 -1 -19 5 0&#xA;12 11 15 24 6 24 7 24 130 24 99 0 126 -2 130 -14 5 -12 9 -12 26 -2 30 19 48&#xA;-3 31 -36 -8 -13 -11 -28 -7 -34 5 -8 11 -222 7 -260 0 -7 -12 -17 -26 -22&#xA;-33 -13 -34 -43 -1 -34 21 5 24 1 30 -37 8 -49 2 -58 -24 -41 -28 17 -25 4 5&#xA;-24 24 -22 25 -27 21 -119 -2 -53 -7 -99 -10 -102 -3 -4 -6 0 -6 7 0 7 -3 11&#xA;-6 8 -3 -4 2 -20 10 -37 13 -25 15 -52 10 -148 -3 -65 -5 -127 -5 -138 0 -26&#xA;-19 -37 -39 -22 -13 10 -13 10 -2 -5 8 -9 11 -22 7 -28 -9 -14 8 -13 23 2 9 9&#xA;12 7 12 -11 0 -13 -8 -30 -17 -38 -17 -14 -17 -14 0 -9 12 4 17 0 17 -14 0&#xA;-11 -6 -20 -12 -20 -10 0 -10 -2 -1 -8 12 -8 16 -112 13 -379 0 -84 2 -169 6&#xA;-189 7 -36 6 -37 -18 -31 -23 6 -25 4 -20 -18 4 -23 6 -24 17 -8 12 16 13 15&#xA;18 -3 3 -10 4 -53 2 -94 -3 -73 -3 -75 -29 -76 -30 -1 -34 17 -9 42 24 23 29&#xA;66 8 58 -9 -4 -14 -12 -12 -18 7 -17 -22 -66 -38 -66 -8 0 -15 5 -15 11 0 5&#xA;-5 7 -11 4 -14 -9 20 -33 56 -39 16 -3 32 -9 37 -14 9 -9 12 -120 9 -308 l-1&#xA;-101 -55 -2 c-54 -1 -56 -1 -61 29 -7 34 -24 31 -24 -6 0 -21 -5 -24 -35 -24&#xA;-21 0 -35 5 -35 12 0 9 -3 9 -12 0 -17 -17 -45 -15 -52 5 -6 15 -8 15 -16 3&#xA;-6 -9 -10 -10 -10 -3 0 7 8 17 18 22 9 6 12 11 5 11 -6 0 -19 7 -27 16 -15 14&#xA;-18 14 -33 -1 -15 -16 -15 -17 3 -15 39 4 42 -1 17 -26 -19 -19 -31 -24 -41&#xA;-17 -19 12 -23 70 -6 87 7 8 10 16 7 20 -9 9 -33 -14 -33 -31 0 -8 -4 -11 -10&#xA;-8 -12 8 -13 -8 -1 -21 5 -5 12 -19 16 -31 5 -19 2 -23 -14 -23 -12 0 -21 6&#xA;-22 13 0 9 -2 9 -6 0 -6 -17 -33 -17 -33 0 0 8 -9 22 -21 33 -16 14 -22 15&#xA;-28 5 -6 -9 -11 -10 -15 -3 -9 16 -36 3 -36 -17 0 -13 2 -13 9 -2 7 11 13 10&#xA;33 -3 14 -9 27 -14 30 -10 3 3 9 1 12 -5 4 -6 -22 -9 -73 -9 -67 1 -79 4 -69&#xA;15 6 8 17 12 24 9 7 -3 15 2 18 10 10 26 -42 17 -60 -11 -14 -21 -24 -25 -64&#xA;-25 -26 0 -61 7 -79 16 -45 22 -77 24 -98 5 -15 -13 -43 -17 -146 -18 l-128&#xA;-2 3 32 c1 18 -2 31 -7 31 -6 -1 -24 -5 -42 -8 -25 -6 -34 -3 -47 16 -9 12&#xA;-16 17 -16 11 0 -7 4 -14 10 -18 5 -3 7 -12 4 -19 -3 -7 2 -16 10 -19 9 -4 16&#xA;-11 16 -17 0 -6 -52 -10 -144 -10 -118 0 -147 3 -160 16 -19 19 -21 40 -3 48&#xA;6 4 2 4 -11 2 -14 -3 -25 1 -29 10 -3 8 -10 11 -15 8 -7 -4 -4 -10 6 -16 11&#xA;-6 14 -16 10 -35 -5 -18 -3 -24 5 -19 6 4 11 3 11 -2 0 -5 -158 -9 -356 -11&#xA;-247 -1 -354 1 -349 8 3 6 14 11 23 11 13 0 14 2 3 13 -11 9 -14 9 -18 0 -3&#xA;-7 -11 -13 -19 -13 -8 0 -14 -4 -14 -10 0 -6 -33 -10 -80 -10 -57 0 -80 4 -80&#xA;13 0 9 -2 9 -8 0 -11 -17 -175 -17 -169 0 3 7 9 11 15 10 6 -2 9 4 5 12 -4 12&#xA;-9 13 -19 4 -11 -9 -18 -8 -29 1 -13 10 -18 11 -28 1 -9 -10 -8 -11 6 -6 13 6&#xA;17 2 17 -14 0 -12 -4 -21 -10 -21 -5 0 -10 5 -10 12 0 9 -3 9 -12 0 -15 -15&#xA;-48 -16 -48 -2 0 7 -6 7 -19 0 -11 -5 -54 -10 -97 -10 -63 0 -74 2 -65 13 12&#xA;15 5 27 -16 27 -10 0 -12 -6 -8 -20 4 -14 2 -20 -9 -20 -8 0 -17 4 -21 10 -3&#xA;5 -12 7 -20 3 -19 -7 -19 7 -1 32 17 25 17 53 -1 59 -10 4 -12 -1 -7 -21 5&#xA;-18 3 -24 -4 -19 -8 4 -10 2 -6 -8 9 -24 -53 -56 -110 -56 -41 0 -47 2 -37 14&#xA;10 12 8 13 -8 9 -12 -3 -21 -9 -21 -14 0 -5 -16 -9 -35 -9 -24 0 -35 5 -35 15&#xA;0 19 -9 19 -32 -2 -11 -9 -18 -11 -18 -5 0 7 5 12 10 12 6 0 10 7 10 16 0 11&#xA;-5 14 -17 10 -9 -4 -20 -1 -24 6 -4 7 -11 9 -16 5 -4 -5 -1 -12 6 -16 7 -5 10&#xA;-14 7 -20 -4 -6 -12 -9 -17 -6 -5 4 -9 1 -9 -4 0 -7 -27 -11 -70 -11 -58 0&#xA;-70 3 -70 17 0 15 -1 15 -18 0 -14 -13 -40 -16 -147 -14 -126 2 -130 3 -133&#xA;25 -2 12 -8 22 -13 22 -9 0 -13 -14 -10 -37 1 -9 -12 -13 -39 -13 -22 0 -40 5&#xA;-40 10 0 6 -9 5 -21 -2 -17 -10 -23 -10 -26 0 -3 6 -14 12 -26 12 -20 1 -20 2&#xA;-4 11 23 14 21 22 -7 35 -28 13 -49 5 -37 -15 5 -8 14 -10 21 -6 7 4 4 -4 -5&#xA;-19 -18 -27 -44 -35 -47 -13 0 6 -2 17 -2 22 -1 6 -5 15 -8 21 -4 6 -1 20 7&#xA;30 16 22 19 34 7 34 -8 0 -37 -50 -35 -60 1 -3 4 -17 8 -32 7 -26 6 -27 -32&#xA;-25 -21 2 -38 8 -38 14 0 19 -13 26 -52 29 l-38 3 25 -19 c13 -10 28 -16 32&#xA;-14 3 2 9 0 13 -6 4 -6 -20 -9 -65 -7 -43 1 -69 5 -67 12 2 5 10 11 18 11 8 1&#xA;20 2 28 3 21 2 4 15 -23 18 -14 2 -31 -6 -46 -22 -19 -20 -33 -25 -70 -25 -26&#xA;0 -50 3 -54 7 -7 7 -76 33 -90 33 -5 0 -3 -6 3 -14 15 -18 -4 -32 -23 -17 -7&#xA;6 -15 9 -18 6 -9 -10 -234 -12 -251 -3 -13 7 -17 17 -13 32 6 23 5 23 -42 13&#xA;-56 -12 -61 -15 -43 -26 7 -5 10 -14 6 -20 -4 -8 -33 -10 -88 -7 -45 3 -97 5&#xA;-115 5 -30 1 -32 3 -22 21 6 11 9 24 6 29 -3 5 1 14 8 20 10 8 16 9 21 1 9&#xA;-15 25 -12 25 5 0 8 -9 15 -20 15 -31 0 -37 30 -10 50 25 19 20 40 -11 40 -16&#xA;0 -19 -5 -14 -20 4 -14 2 -20 -8 -20 -13 0 -14 44 -13 298 l1 297 22 -2 c11&#xA;-1 23 4 26 11 7 16 -16 28 -38 20 -12 -5 -14 19 -12 166 1 130 4 173 14 177&#xA;18 7 17 53 -2 53 -12 0 -14 19 -12 113 2 61 7 118 11 126 5 8 4 16 -4 21 -18&#xA;11 -4 200 16 200 7 0 11 6 8 14 -3 8 -12 12 -19 10 -10 -4 -13 11 -12 70 1 68&#xA;3 75 21 78 14 2 21 11 22 26 1 21 0 21 -16 7 -9 -8 -20 -12 -23 -8 -12 11 -8&#xA;43 6 44 9 0 9 2 0 6 -19 7 -16 40 3 47 15 6 15 8 1 24 -12 13 -16 33 -13 73 2&#xA;29 4 66 5 82 1 20 6 27 20 27 31 0 34 18 4 22 l-28 3 -3 110 c-4 168 -25 152&#xA;198 153 105 1 202 -3 216 -9 19 -6 37 -6 60 3 26 9 38 9 57 -1 17 -9 30 -10&#xA;43 -3 27 14 107 13 116 -1 6 -9 10 -9 16 0 11 18 302 15 295 -4 -7 -18 21 -17&#xA;37 2 15 18 47 20 53 3 3 -10 7 -10 18 -2 8 7 56 11 122 10 60 0 111 2 113 5 6&#xA;11 66 -3 71 -17z m4049 2 c3 -8 1 -24 -6 -35 -8 -17 -8 -21 4 -21 8 0 17 15&#xA;21 36 l6 36 62 -6 c34 -4 77 -6 95 -7 17 0 32 -5 32 -10 0 -6 9 -8 20 -4 15 5&#xA;22 -1 34 -29 11 -27 21 -36 38 -35 18 1 19 2 5 6 -13 3 -17 11 -14 24 3 10 -1&#xA;23 -9 30 -20 16 -17 29 6 29 12 0 20 -7 21 -17 1 -17 2 -17 6 0 6 24 65 22&#xA;119 -5 41 -20 43 -24 50 -74 3 -30 3 -66 -1 -81 -4 -16 -7 -92 -6 -170 2 -125&#xA;0 -142 -14 -137 -10 4 -15 0 -15 -15 0 -12 6 -21 13 -21 11 0 14 -33 15 -157&#xA;1 -176 -5 -199 -44 -181 -22 11 -28 9 -40 -7 -11 -15 -11 -20 -1 -27 18 -12&#xA;51 -10 65 4 8 8 15 9 22 2 16 -16 1 -44 -29 -50 -41 -8 -54 -19 -62 -47 -8&#xA;-30 2 -41 30 -32 13 4 17 12 14 29 -4 18 0 26 17 31 12 4 24 5 26 2 3 -3 4&#xA;-42 4 -88 -1 -46 -1 -102 -1 -124 0 -22 -5 -50 -11 -62 -8 -17 -8 -29 0 -45 6&#xA;-13 11 -34 11 -48 -1 -14 0 -78 2 -143 2 -111 -5 -157 -17 -110 -3 12 -15 23&#xA;-25 26 -25 7 -75 -18 -59 -28 7 -4 17 -2 23 4 19 19 35 12 42 -19 4 -16 13&#xA;-30 21 -30 16 0 22 -96 14 -200 -1 -8 0 -44 2 -80 3 -51 0 -71 -14 -92 -22&#xA;-32 -22 -38 -2 -38 14 0 16 -7 11 -39 -2 -22 0 -44 5 -49 7 -7 8 -35 2 -79 -4&#xA;-37 -7 -75 -6 -83 6 -40 4 -118 -2 -129 -6 -9 -13 -8 -28 5 -15 15 -21 16 -27&#xA;5 -5 -7 -17 -11 -27 -9 -16 3 -19 11 -16 53 3 44 2 47 -13 35 -10 -9 -14 -22&#xA;-11 -36 5 -17 0 -27 -17 -39 -31 -20 -112 -31 -121 -16 -5 7 -20 9 -42 5 -29&#xA;-5 -33 -4 -28 10 3 9 1 16 -5 16 -6 0 -11 -7 -11 -15 0 -21 -9 -19 -65 10 -45&#xA;25 -47 25 -42 5 7 -26 2 -28 -82 -35 -50 -4 -71 -2 -71 6 0 7 -9 9 -21 6 -20&#xA;-5 -20 -3 -16 61 9 122 14 156 26 160 6 2 2 15 -11 33 -16 21 -19 32 -11 40 7&#xA;7 8 22 2 42 -13 47 -7 138 9 132 7 -2 12 4 12 15 0 11 -6 20 -14 20 -17 0 -20&#xA;77 -4 97 7 9 7 13 -1 13 -15 0 -15 142 1 158 9 9 9 12 0 12 -7 0 -12 13 -12&#xA;30 0 22 4 28 15 24 8 -4 15 -1 15 5 0 6 -6 11 -14 11 -10 0 -14 17 -15 66 -1&#xA;52 3 69 20 87 17 18 21 20 29 7 6 -9 10 -10 10 -3 0 18 -20 27 -33 14 -6 -6&#xA;-14 -11 -18 -11 -9 0 -12 611 -3 634 3 9 11 13 17 9 6 -3 7 -1 3 6 -4 6 -11 9&#xA;-16 6 -5 -3 -9 35 -9 85 0 50 3 90 9 90 5 0 12 16 16 35 3 19 10 35 15 35 19&#xA;0 8 19 -13 22 -20 3 -23 9 -23 48 0 39 3 45 23 48 29 4 28 18 -3 26 -25 6 -25&#xA;8 -24 100 1 91 1 93 30 110 25 15 27 19 16 37 -12 20 -12 20 -15 -1 -4 -25&#xA;-18 -26 -25 -1 -9 34 4 71 24 71 11 0 19 7 19 15 0 21 108 22 116 1z m708 -5&#xA;c10 -11 16 -28 14 -38 -5 -27 -50 -29 -73 -3 -20 22 -20 22 4 41 29 24 34 24&#xA;55 0z m-3 -171 c10 -6 19 -16 19 -22 0 -20 -33 -48 -57 -48 -20 0 -23 5 -23&#xA;34 0 43 23 56 61 36z m-1 -188 c24 -19 20 -46 -10 -62 -23 -12 -50 11 -50 44&#xA;0 40 24 47 60 18z m-854 -149 c-11 -11 -19 6 -11 24 8 17 8 17 12 0 3 -10 2&#xA;-21 -1 -24z m862 -43 c5 -51 -43 -73 -64 -30 -11 21 -10 27 3 43 24 25 57 18&#xA;61 -13z m-2 -176 c13 -50 -20 -71 -57 -38 -19 17 -16 41 8 61 20 16 42 6 49&#xA;-23z m6 -179 c9 -21 9 -29 -4 -41 -20 -21 -52 -11 -66 20 -13 28 1 46 35 46&#xA;15 0 27 -9 35 -25z m0 -180 c23 -51 -43 -76 -68 -26 -17 33 -7 51 27 51 22 0&#xA;32 -7 41 -25z m-2 -170 c16 -19 4 -52 -22 -61 -25 -8 -48 17 -48 53 0 19 5 23&#xA;29 23 16 0 34 -7 41 -15z m5 -206 c0 -19 -6 -25 -28 -27 -27 -3 -57 12 -57 29&#xA;0 4 10 17 22 29 19 17 24 18 42 6 12 -7 21 -24 21 -37z m-12 -141 c22 -17 12&#xA;-52 -19 -69 -21 -11 -27 -11 -34 1 -15 24 -11 58 8 69 22 13 25 13 45 -1z m15&#xA;-216 c6 -38 -73 -42 -86 -4 -2 6 6 20 18 32 19 19 24 20 43 7 12 -8 23 -24 25&#xA;-35z m-16 -149 c38 -34 15 -72 -36 -59 -34 8 -42 37 -16 58 27 22 29 22 52 1z&#xA;m-3 -180 c25 -22 19 -59 -12 -69 -24 -8 -47 18 -47 51 0 39 24 46 59 18z m3&#xA;-180 c24 -21 23 -50 -2 -58 -50 -16 -87 27 -50 57 27 22 29 22 52 1z m-5862&#xA;-53 c0 -5 -5 -12 -11 -16 -14 -8 -33 11 -25 25 7 11 36 4 36 -9z m3676 3 c-3&#xA;-21 -31 -29 -41 -12 -4 6 -1 15 6 20 22 14 37 10 35 -8z m326 -16 c-24 -11&#xA;-38 -5 -28 11 3 6 16 8 28 4 l22 -5 -22 -10z"/>
<path d="M4250 2860 c0 -5 5 -10 10 -10 6 0 10 5 10 10 0 6 -4 10 -10 10 -5 0&#xA;-10 -4 -10 -10z"/>
<path d="M5500 2859 c0 -13 29 -31 40 -24 19 12 10 30 -15 30 -14 0 -25 -3&#xA;-25 -6z"/>
<path d="M1467 2845 c-24 -18 -22 -45 3 -38 11 3 20 11 20 18 0 7 5 15 12 17&#xA;8 3 7 6 -3 10 -8 3 -23 0 -32 -7z"/>
<path d="M1751 2846 c-7 -8 -8 -17 -3 -20 6 -3 13 1 16 10 9 23 2 28 -13 10z"/>
<path d="M1838 2838 c5 -22 18 -23 26 -2 8 21 9 20 -13 20 -12 0 -17 -6 -13&#xA;-18z"/>
<path d="M1965 2848 c21 -35 38 -48 52 -37 16 14 17 31 1 27 -7 -1 -24 4 -37&#xA;11 -19 11 -22 11 -16 -1z"/>
<path d="M4536 2844 c-11 -7 -16 -17 -13 -21 4 -4 15 1 24 10 22 21 14 30 -11&#xA;11z"/>
<path d="M5140 2845 c-6 -8 -10 -22 -8 -31 3 -17 4 -17 21 0 18 18 23 46 8 46&#xA;-5 0 -14 -7 -21 -15z"/>
<path d="M857 2843 c-12 -12 -7 -22 8 -17 8 4 15 10 15 15 0 11 -14 12 -23 2z"/>
<path d="M1227 2843 c-4 -3 -7 -11 -7 -17 0 -6 5 -5 12 2 6 6 9 14 7 17 -3 3&#xA;-9 2 -12 -2z"/>
<path d="M1290 2839 c0 -5 5 -7 10 -4 6 3 10 8 10 11 0 2 -4 4 -10 4 -5 0 -10&#xA;-5 -10 -11z"/>
<path d="M1395 2830 c5 -14 2 -20 -9 -20 -17 0 -20 -9 -10 -34 11 -28 35 -19&#xA;28 9 -4 15 -2 25 5 25 6 0 11 9 11 20 0 11 -7 20 -16 20 -11 0 -14 -6 -9 -20z"/>
<path d="M1797 2843 c-11 -11 -8 -23 6 -23 8 0 14 7 14 15 0 16 -9 19 -20 8z"/>
<path d="M2473 2836 c10 -8 21 -25 25 -39 l7 -25 19 25 c12 16 14 24 6 21 -8&#xA;-2 -22 4 -32 14 -10 10 -24 18 -30 18 -8 -1 -6 -6 5 -14z"/>
<path d="M3010 2840 c0 -5 6 -10 14 -10 8 0 18 5 21 10 3 6 -3 10 -14 10 -12&#xA;0 -21 -4 -21 -10z"/>
<path d="M3140 2840 c0 -5 7 -10 15 -10 8 0 15 5 15 10 0 6 -7 10 -15 10 -8 0&#xA;-15 -4 -15 -10z"/>
<path d="M4190 2841 c0 -5 -15 -16 -32 -25 -21 -10 -27 -16 -15 -16 10 0 15&#xA;-4 12 -10 -3 -6 1 -7 9 -4 9 3 16 10 16 15 0 4 7 6 15 3 9 -4 15 0 15 10 0 9&#xA;5 16 10 16 6 0 10 5 10 10 0 6 -9 10 -20 10 -11 0 -20 -4 -20 -9z"/>
<path d="M4901 2834 c0 -11 3 -14 6 -6 3 7 2 16 -1 19 -3 4 -6 -2 -5 -13z"/>
<path d="M5072 2834 c4 -21 22 -23 26 -1 2 10 -3 17 -13 17 -10 0 -15 -6 -13&#xA;-16z"/>
<path d="M5640 2847 c0 -15 69 -77 75 -67 3 5 1 10 -4 10 -6 0 -11 11 -11 25&#xA;0 15 -6 25 -14 25 -8 0 -21 3 -30 6 -9 3 -16 4 -16 1z"/>
<path d="M2110 2830 c0 -5 5 -10 11 -10 5 0 7 5 4 10 -3 6 -8 10 -11 10 -2 0&#xA;-4 -4 -4 -10z"/>
<path d="M2760 2826 c0 -9 5 -16 10 -16 6 0 10 4 10 9 0 6 -4 13 -10 16 -5 3&#xA;-10 -1 -10 -9z"/>
<path d="M5470 2830 c0 -5 5 -10 10 -10 6 0 10 5 10 10 0 6 -4 10 -10 10 -5 0&#xA;-10 -4 -10 -10z"/>
<path d="M1320 2820 c0 -12 28 -25 36 -17 3 3 -4 10 -15 17 -15 7 -21 7 -21 0z"/>
<path d="M1520 2816 c0 -9 5 -16 10 -16 6 0 10 4 10 9 0 6 -4 13 -10 16 -5 3&#xA;-10 -1 -10 -9z"/>
<path d="M2050 2826 c0 -2 8 -10 18 -17 15 -13 16 -12 3 4 -13 16 -21 21 -21&#xA;13z"/>
<path d="M2345 2820 c3 -5 8 -10 11 -10 2 0 4 5 4 10 0 6 -5 10 -11 10 -5 0&#xA;-7 -4 -4 -10z"/>
<path d="M2390 2815 c0 -16 16 -20 24 -6 3 5 -1 11 -9 15 -9 3 -15 0 -15 -9z"/>
<path d="M2595 2820 c3 -5 10 -10 16 -10 5 0 9 5 9 10 0 6 -7 10 -16 10 -8 0&#xA;-12 -4 -9 -10z"/>
<path d="M5000 2815 c7 -8 17 -15 22 -15 6 0 5 7 -2 15 -7 8 -17 15 -22 15 -6&#xA;0 -5 -7 2 -15z"/>
<path d="M725 2810 c-3 -5 -1 -10 4 -10 6 0 11 5 11 10 0 6 -2 10 -4 10 -3 0&#xA;-8 -4 -11 -10z"/>
<path d="M1176 2805 c7 -17 54 -21 54 -4 0 5 -4 8 -9 4 -5 -3 -12 -1 -16 5&#xA;-10 16 -35 12 -29 -5z"/>
<path d="M3620 2801 c-13 -26 2 -35 18 -11 7 11 8 21 2 25 -5 3 -14 -3 -20&#xA;-14z"/>
<path d="M3783 2805 c-3 -9 -3 -19 1 -22 3 -4 6 -1 6 5 0 7 7 12 16 12 8 0 12&#xA;5 9 10 -9 15 -25 12 -32 -5z"/>
<path d="M4052 2809 c2 -7 10 -15 17 -17 8 -3 12 1 9 9 -2 7 -10 15 -17 17 -8&#xA;3 -12 -1 -9 -9z"/>
<path d="M4395 2810 c-3 -5 1 -10 9 -10 9 0 16 5 16 10 0 6 -4 10 -9 10 -6 0&#xA;-13 -4 -16 -10z"/>
<path d="M4650 2805 c-7 -9 -11 -18 -8 -20 3 -3 11 1 18 10 7 9 11 18 8 20 -3&#xA;3 -11 -1 -18 -10z"/>
<path d="M4852 2809 c2 -7 10 -15 17 -17 8 -3 12 1 9 9 -2 7 -10 15 -17 17 -8&#xA;3 -12 -1 -9 -9z"/>
<path d="M5200 2810 c0 -5 5 -10 11 -10 5 0 7 5 4 10 -3 6 -8 10 -11 10 -2 0&#xA;-4 -4 -4 -10z"/>
<path d="M970 2795 c0 -8 2 -15 4 -15 2 0 6 7 10 15 3 8 1 15 -4 15 -6 0 -10&#xA;-7 -10 -15z"/>
<path d="M2847 2803 c-10 -9 -9 -23 2 -23 5 0 11 7 15 15 5 15 -5 20 -17 8z"/>
<path d="M2930 2799 c0 -5 5 -7 10 -4 6 3 10 8 10 11 0 2 -4 4 -10 4 -5 0 -10&#xA;-5 -10 -11z"/>
<path d="M3215 2800 c-8 -13 16 -48 38 -54 16 -4 16 -7 5 -25 -16 -26 -2 -41&#xA;16 -16 8 11 21 16 33 13 25 -7 69 25 58 41 -5 9 -11 7 -21 -6 -20 -27 -19 6 2&#xA;35 14 21 14 22 -5 22 -12 0 -22 -7 -22 -15 -4 -46 -10 -50 -54 -34 -27 10 -35&#xA;18 -32 31 5 19 -8 25 -18 8z"/>
<path d="M3865 2800 c3 -5 8 -10 11 -10 2 0 4 5 4 10 0 6 -5 10 -11 10 -5 0&#xA;-7 -4 -4 -10z"/>
<path d="M4890 2800 c0 -5 5 -10 11 -10 5 0 7 5 4 10 -3 6 -8 10 -11 10 -2 0&#xA;-4 -4 -4 -10z"/>
<path d="M5040 2802 c0 -15 28 -47 35 -40 11 11 -5 48 -21 48 -8 0 -14 -4 -14&#xA;-8z"/>
<path d="M893 2785 c-3 -9 -3 -18 0 -21 6 -7 47 18 47 28 0 15 -41 8 -47 -7z"/>
<path d="M2030 2784 c0 -8 5 -12 10 -9 6 4 8 11 5 16 -9 14 -15 11 -15 -7z"/>
<path d="M4570 2780 c0 -23 4 -24 31 -9 23 12 16 29 -12 29 -12 0 -19 -7 -19&#xA;-20z"/>
<path d="M1745 2770 c-16 -18 -17 -21 -1 -44 20 -31 20 -36 1 -36 -8 0 -15 -4&#xA;-15 -10 0 -5 -19 -10 -41 -10 -41 0 -41 1 -35 30 5 25 2 30 -15 30 -16 0 -19&#xA;4 -14 20 5 14 2 20 -9 20 -22 0 -20 -23 4 -45 11 -10 20 -24 20 -31 0 -19 -19&#xA;-27 -35 -14 -9 7 -15 8 -20 0 -3 -5 -25 -10 -49 -10 -36 0 -44 4 -54 28 -11&#xA;26 -11 26 -9 2 l3 -25 -187 -3 -188 -2 -4 32 -3 33 -8 -32 c-8 -29 -12 -33&#xA;-42 -33 -24 0 -34 5 -34 15 0 20 -10 19 -26 -2 -12 -17 -13 -17 -14 -1 0 9 4&#xA;20 10 23 13 8 13 55 0 55 -5 0 -10 -6 -10 -14 0 -7 -7 -19 -15 -26 -8 -7 -15&#xA;-21 -15 -31 0 -16 -8 -19 -58 -19 -48 0 -62 -4 -80 -23 -25 -27 -28 -37 -8&#xA;-37 22 0 26 -23 26 -135 0 -97 -1 -105 -22 -116 l-22 -12 22 -8 c24 -9 30 -47&#xA;10 -67 -7 -7 -8 -12 -2 -12 6 0 10 -32 10 -80 -1 -79 -2 -81 -23 -75 -17 4&#xA;-21 2 -17 -9 3 -8 14 -16 25 -19 15 -4 19 -14 19 -51 0 -25 -4 -46 -9 -46 -5&#xA;0 -5 -17 0 -41 10 -45 6 -59 -19 -59 -13 0 -13 -3 5 -15 19 -13 21 -24 22&#xA;-159 1 -92 -3 -147 -9 -151 -8 -5 -8 -11 0 -20 15 -18 7 -141 -11 -162 -25&#xA;-32 -39 -62 -30 -67 5 -3 14 1 21 9 7 8 16 15 21 15 11 0 9 -379 -2 -401 -5&#xA;-9 -4 -20 2 -26 18 -18 0 -51 -28 -55 -35 -4 -43 -28 -9 -28 32 0 46 -25 46&#xA;-84 0 -29 6 -53 17 -66 19 -22 48 -26 58 -10 4 7 51 11 118 11 62 -1 121 -1&#xA;132 -1 201 2 381 -3 396 -10 10 -6 20 -6 23 -2 7 12 320 14 378 4 36 -7 48 -6&#xA;52 4 7 18 117 6 132 -14 12 -16 57 -25 48 -10 -3 4 -12 8 -20 8 -8 0 -14 5&#xA;-14 11 0 6 16 9 38 7 27 -2 40 -9 47 -26 13 -30 29 -28 23 3 l-5 25 153 0&#xA;c110 0 154 -3 154 -12 0 -7 6 -6 18 3 12 11 39 14 95 12 42 -1 82 -5 87 -8 6&#xA;-3 15 -3 22 1 20 13 468 6 484 -7 8 -7 14 -7 14 -1 0 5 18 10 40 10 37 1 40&#xA;-1 34 -20 -4 -14 -2 -18 5 -14 6 4 11 13 11 20 0 15 -14 14 209 18 173 3 186&#xA;2 203 -16 10 -11 18 -25 18 -31 0 -7 6 -12 13 -12 6 0 21 -4 32 -8 14 -5 12&#xA;-1 -7 15 -16 12 -28 28 -28 36 0 16 16 19 25 4 3 -6 11 -10 16 -10 6 0 7 4 4&#xA;10 -4 6 7 10 24 10 18 0 31 -5 31 -12 0 -9 3 -9 12 0 16 16 68 15 68 0 0 -10&#xA;2 -10 8 0 12 18 208 13 204 -5 -1 -7 8 -13 20 -13 17 0 19 3 10 12 -19 19 -14&#xA;30 11 26 14 -2 23 -11 25 -26 3 -23 16 -29 27 -13 3 5 1 12 -5 16 -5 3 -10 10&#xA;-10 15 0 15 80 4 98 -13 14 -15 18 -15 43 0 26 16 29 16 47 0 24 -22 28 -21&#xA;36 6 6 21 7 21 20 5 14 -19 52 -24 58 -9 3 10 28 11 405 12 157 0 233 -4 238&#xA;-11 4 -7 11 -8 18 -2 7 5 79 10 161 11 81 1 152 4 157 7 5 3 9 48 9 100 l0 94&#xA;28 -6 c50 -12 72 -23 72 -36 0 -9 3 -8 10 2 12 18 13 33 2 26 -4 -2 -33 7 -62&#xA;22 -53 27 -55 29 -58 72 -2 32 1 46 13 53 13 7 14 12 4 23 -15 19 -24 124 -10&#xA;124 6 0 11 -4 11 -10 0 -5 4 -10 10 -10 5 0 7 6 4 13 -6 17 21 41 36 32 6 -4&#xA;9 -12 7 -19 -5 -13 20 -40 26 -28 2 4 0 22 -5 40 -8 28 -12 32 -31 26 -12 -4&#xA;-26 -13 -30 -20 -4 -8 -15 -14 -22 -14 -17 0 -20 26 -5 35 7 4 7 12 0 25 -7&#xA;13 -7 21 0 25 6 4 8 15 5 26 -4 11 -8 47 -9 80 -3 49 0 61 15 69 9 6 24 8 31&#xA;5 9 -4 14 2 15 17 0 13 -1 18 -4 11 -8 -20 -63 11 -63 36 0 5 8 15 17 21 16 9&#xA;17 11 2 20 -17 10 -15 55 3 66 5 4 5 10 -1 17 -19 24 -17 99 3 91 10 -4 12 2&#xA;8 21 -3 16 -8 22 -12 15 -4 -6 -7 19 -7 57 0 37 -2 98 -3 136 -3 70 4 92 21&#xA;67 9 -12 10 -12 5 3 -3 10 -6 23 -6 28 0 6 -4 7 -10 4 -5 -3 -10 3 -10 14 0&#xA;12 5 21 10 21 7 0 7 6 0 19 -7 14 -7 22 1 27 9 5 8 10 -2 18 -15 11 -23 56&#xA;-10 56 4 0 12 -5 18 -11 8 -8 13 -5 18 11 7 23 -4 44 -12 22 -7 -19 -23 -3&#xA;-23 24 0 13 6 24 13 24 9 0 8 3 -2 9 -9 6 -12 18 -7 36 4 15 3 32 -3 38 -15&#xA;19 2 91 22 95 11 2 17 -3 17 -16 0 -10 3 -22 7 -25 7 -8 53 55 53 72 0 15 -13&#xA;14 -28 -1 -9 -9 -15 -9 -24 0 -7 7 -20 12 -30 12 -11 0 -18 7 -18 20 0 11 7&#xA;20 15 20 8 0 15 4 15 9 0 5 -7 11 -15 15 -8 3 -15 10 -15 16 0 15 52 1 67 -17&#xA;13 -17 33 -9 33 12 0 15 -27 29 -50 26 -27 -3 -61 37 -54 64 6 24 4 25 -44 25&#xA;-28 0 -53 4 -56 8 -8 13 29 31 45 21 24 -15 28 -10 17 21 -10 30 -11 30 -34&#xA;15 -34 -22 -47 -19 -40 9 7 30 -7 42 -24 21 -11 -13 -10 -20 0 -40 12 -22 11&#xA;-27 -6 -40 -10 -8 -34 -15 -52 -15 -31 0 -33 2 -30 27 2 19 -2 29 -12 31 -11&#xA;2 -16 -5 -15 -24 0 -26 -2 -27 -68 -31 -64 -4 -69 -3 -74 18 -6 20 -7 20 -18&#xA;6 -17 -23 -243 -36 -256 -16 -6 10 -9 11 -9 2 0 -9 -17 -13 -50 -13 -50 0 -54&#xA;4 -51 43 4 29 -16 19 -22 -13 l-6 -30 -130 0 c-94 0 -131 3 -135 13 -5 10 -7&#xA;10 -12 0 -3 -7 -14 -13 -25 -13 -10 0 -19 6 -19 13 0 9 -2 9 -8 -1 -10 -15&#xA;-219 -15 -238 0 -7 5 -18 7 -25 6 -8 -2 -13 5 -13 14 1 10 -2 15 -7 12 -5 -3&#xA;-9 -12 -9 -20 0 -17 -22 -18 -38 -2 -9 9 -12 8 -12 -5 0 -20 -21 -22 -38 -5&#xA;-9 9 -12 9 -12 1 0 -13 -77 -15 -85 -2 -3 4 -19 14 -35 23 -26 12 -30 12 -30&#xA;0 0 -8 7 -14 15 -14 8 0 15 -4 15 -10 0 -13 -93 -10 -102 4 -6 8 -8 7 -8 -1 0&#xA;-20 -28 -15 -33 5 -4 16 -5 16 -6 0 -2 -26 -49 -23 -72 5 l-18 22 -1 -22 0&#xA;-21 -270 -1 c-222 0 -270 2 -270 14 0 7 6 15 13 18 6 2 8 8 4 13 -4 5 -12 3&#xA;-16 -4 -17 -29 -64 -42 -145 -42 -46 0 -87 5 -93 11 -7 7 -17 8 -30 1 -23 -13&#xA;-203 -14 -203 -2 0 6 6 10 14 10 22 0 25 23 8 43 -15 17 -17 16 -27 -20 -10&#xA;-35 -14 -38 -49 -41 -36 -3 -38 -2 -34 20 3 13 9 32 13 42 7 15 5 18 -7 13 -9&#xA;-3 -25 1 -36 8 -20 15 -32 11 -32 -11 0 -7 8 -10 19 -7 24 6 35 -11 27 -43 -6&#xA;-23 -9 -24 -91 -22 -47 1 -85 6 -85 11 0 4 9 5 21 2 18 -6 19 -5 7 14 -7 12&#xA;-14 17 -16 11 -2 -6 -16 -17 -32 -25 -34 -17 -180 -19 -180 -1 0 6 -4 5 -9 -3&#xA;-6 -9 -18 -11 -36 -7 -27 7 -28 18 -9 88 4 13 1 16 -9 12 -10 -4 -14 -20 -13&#xA;-55 l1 -49 -40 0 c-55 0 -85 10 -85 26 0 10 -5 9 -18 -4 -14 -14 -37 -19 -100&#xA;-21 -81 -2 -103 7 -64 28 13 7 23 6 30 -1 17 -17 24 -5 16 26 -7 30 -16 32&#xA;-38 11 -27 -28 -45 -19 -39 20 6 40 3 43 -22 15z m3495 -1785 l0 -125 -2065 0&#xA;-2065 0 0 125 0 125 2065 0 2065 0 0 -125z"/>
<path d="M2336 2776 c7 -19 -13 -56 -31 -56 -8 0 -15 -7 -15 -15 0 -22 22 -9&#xA;48 28 26 38 28 57 7 57 -8 0 -12 -6 -9 -14z"/>
<path d="M2985 2781 c-3 -5 -1 -12 4 -15 5 -3 11 1 15 9 6 16 -9 21 -19 6z"/>
<path d="M4090 2780 c0 -6 7 -10 15 -10 8 0 15 2 15 4 0 2 -7 6 -15 10 -8 3&#xA;-15 1 -15 -4z"/>
<path d="M674 2765 c-4 -8 -12 -15 -20 -15 -8 0 -14 -7 -14 -15 0 -8 7 -15 15&#xA;-15 8 0 15 5 15 10 0 6 6 10 14 10 12 0 26 20 26 36 0 11 -31 2 -36 -11z"/>
<path d="M1946 2755 c-5 -16 -15 -36 -24 -42 -9 -7 -14 -15 -11 -17 2 -2 14 4&#xA;27 15 17 13 22 26 20 46 l-4 28 -8 -30z"/>
<path d="M2270 2765 c0 -16 16 -20 24 -6 3 5 -1 11 -9 15 -9 3 -15 0 -15 -9z"/>
<path d="M3536 2750 c4 -19 8 -43 8 -52 0 -12 8 -18 23 -18 27 0 28 3 8 24 -8&#xA;8 -16 24 -18 35 -2 12 -9 27 -16 34 -11 10 -12 5 -5 -23z"/>
<path d="M4355 2770 c-8 -14 50 -68 81 -76 18 -5 24 -2 24 10 0 9 -4 16 -10&#xA;16 -5 0 -10 14 -10 30 0 32 -14 40 -24 15 -3 -8 -15 -15 -27 -15 -18 0 -19 2&#xA;-9 15 10 12 10 15 -3 15 -9 0 -19 -5 -22 -10z m65 -51 c0 -6 -4 -7 -10 -4 -5&#xA;3 -10 11 -10 16 0 6 5 7 10 4 6 -3 10 -11 10 -16z"/>
<path d="M5618 2755 c-7 -33 -2 -44 11 -29 4 5 5 20 1 34 -6 25 -6 25 -12 -5z"/>
<path d="M727 2756 c-18 -14 -18 -16 -1 -41 19 -30 51 -30 46 0 -2 11 -3 28&#xA;-3 38 0 20 -17 22 -42 3z"/>
<path d="M2230 2751 c0 -12 6 -21 15 -21 8 0 15 4 15 9 0 5 -7 14 -15 21 -13&#xA;10 -15 9 -15 -9z"/>
<path d="M2377 2763 c-10 -9 -9 -23 2 -23 5 0 11 7 15 15 5 15 -5 20 -17 8z"/>
<path d="M2916 2761 c-4 -7 -5 -15 -2 -18 9 -9 19 4 14 18 -4 11 -6 11 -12 0z"/>
<path d="M3122 2761 c-11 -7 -11 -9 1 -14 9 -3 18 1 21 9 6 16 -2 18 -22 5z"/>
<path d="M3890 2763 c0 -15 18 -35 23 -27 3 5 -1 15 -9 22 -8 7 -14 9 -14 5z"/>
<path d="M4643 2758 c3 -9 -1 -24 -8 -35 -16 -20 -19 -43 -7 -43 4 0 15 14 25&#xA;32 17 29 17 32 1 47 -15 15 -16 15 -11 -1z"/>
<path d="M5280 2754 c0 -17 22 -14 28 4 2 7 -3 12 -12 12 -9 0 -16 -7 -16 -16z"/>
<path d="M3400 2750 c0 -5 5 -10 10 -10 6 0 10 5 10 10 0 6 -4 10 -10 10 -5 0&#xA;-10 -4 -10 -10z"/>
<path d="M3670 2745 c-14 -16 -3 -20 19 -6 8 5 9 11 3 15 -5 3 -15 -1 -22 -9z"/>
<path d="M1246 2742 c-3 -6 -1 -14 5 -17 14 -9 20 -2 10 14 -6 8 -11 9 -15 3z"/>
<path d="M2730 2741 c0 -5 7 -11 15 -15 9 -3 15 0 15 9 0 8 -7 15 -15 15 -8 0&#xA;-15 -4 -15 -9z"/>
<path d="M2940 2740 c0 -5 4 -10 9 -10 6 0 13 5 16 10 3 6 -1 10 -9 10 -9 0&#xA;-16 -4 -16 -10z"/>
<path d="M3075 2740 c3 -5 10 -10 16 -10 5 0 9 5 9 10 0 6 -7 10 -16 10 -8 0&#xA;-12 -4 -9 -10z"/>
<path d="M3788 2738 c9 -9 15 -9 24 0 9 9 7 12 -12 12 -19 0 -21 -3 -12 -12z"/>
<path d="M4170 2739 c0 -5 5 -7 10 -4 6 3 10 8 10 11 0 2 -4 4 -10 4 -5 0 -10&#xA;-5 -10 -11z"/>
<path d="M4310 2741 c0 -5 7 -14 15 -21 13 -10 15 -9 15 9 0 12 -6 21 -15 21&#xA;-8 0 -15 -4 -15 -9z"/>
<path d="M4916 2741 c-3 -5 1 -11 9 -15 9 -3 15 0 15 9 0 16 -16 20 -24 6z"/>
<path d="M1200 2725 c-7 -9 -10 -18 -7 -22 8 -7 37 15 37 28 0 14 -16 11 -30&#xA;-6z"/>
<path d="M1291 2727 c-6 -8 -8 -17 -4 -20 11 -12 21 -7 26 13 6 23 -5 26 -22&#xA;7z"/>
<path d="M1353 2721 c-1 -11 5 -22 13 -25 11 -4 15 0 12 16 -4 27 -23 34 -25&#xA;9z"/>
<path d="M1426 2731 c-4 -7 -5 -15 -2 -18 9 -9 19 4 14 18 -4 11 -6 11 -12 0z"/>
<path d="M4060 2730 c0 -5 5 -10 10 -10 6 0 10 5 10 10 0 6 -4 10 -10 10 -5 0&#xA;-10 -4 -10 -10z"/>
<path d="M4870 2720 c-9 -16 -8 -20 5 -20 8 0 15 2 15 4 0 2 3 11 6 20 9 23&#xA;-13 20 -26 -4z"/>
<path d="M4966 2724 c-9 -22 3 -32 14 -14 12 19 12 30 1 30 -5 0 -12 -7 -15&#xA;-16z"/>
<path d="M5030 2720 c0 -11 7 -20 15 -20 13 0 14 4 5 20 -6 11 -13 20 -15 20&#xA;-3 0 -5 -9 -5 -20z"/>
<path d="M5096 2731 c-4 -7 -5 -15 -2 -18 9 -9 19 4 14 18 -4 11 -6 11 -12 0z"/>
<path d="M2810 2720 c0 -5 5 -10 10 -10 6 0 10 5 10 10 0 6 -4 10 -10 10 -5 0&#xA;-10 -4 -10 -10z"/>
<path d="M3026 2715 c-3 -8 -1 -15 4 -15 6 0 10 7 10 15 0 8 -2 15 -4 15 -2 0&#xA;-6 -7 -10 -15z"/>
<path d="M3166 2715 c4 -8 8 -15 10 -15 2 0 4 7 4 15 0 8 -4 15 -10 15 -5 0&#xA;-7 -7 -4 -15z"/>
<path d="M3495 2720 c3 -5 8 -10 11 -10 2 0 4 5 4 10 0 6 -5 10 -11 10 -5 0&#xA;-7 -4 -4 -10z"/>
<path d="M4205 2720 c3 -5 8 -10 11 -10 2 0 4 5 4 10 0 6 -5 10 -11 10 -5 0&#xA;-7 -4 -4 -10z"/>
<path d="M3205 2710 c-7 -12 2 -30 16 -30 5 0 9 9 9 20 0 21 -15 27 -25 10z"/>
<path d="M3990 2710 c0 -6 7 -10 15 -10 8 0 15 2 15 4 0 2 -7 6 -15 10 -8 3&#xA;-15 1 -15 -4z"/>
<path d="M2511 2694 c0 -11 3 -14 6 -6 3 7 2 16 -1 19 -3 4 -6 -2 -5 -13z"/>
<path d="M4570 2699 c0 -5 5 -7 10 -4 6 3 10 8 10 11 0 2 -4 4 -10 4 -5 0 -10&#xA;-5 -10 -11z"/>
<path d="M4675 2690 c-3 -5 -1 -10 4 -10 6 0 11 5 11 10 0 6 -2 10 -4 10 -3 0&#xA;-8 -4 -11 -10z"/>
<path d="M5636 2685 c-3 -8 -15 -15 -26 -15 -11 0 -20 -6 -20 -14 0 -26 12&#xA;-46 27 -46 10 0 13 6 9 16 -8 21 11 44 36 44 17 0 18 2 4 15 -8 8 -17 15 -19&#xA;15 -3 0 -7 -7 -11 -15z"/>
<path d="M735 2590 c-3 -5 1 -10 9 -10 9 0 16 5 16 10 0 6 -4 10 -9 10 -6 0&#xA;-13 -4 -16 -10z"/>
<path d="M5697 2584 c-8 -8 3 -34 14 -34 11 0 12 27 0 34 -4 3 -11 3 -14 0z"/>
<path d="M780 2549 c0 -5 5 -7 10 -4 6 3 10 8 10 11 0 2 -4 4 -10 4 -5 0 -10&#xA;-5 -10 -11z"/>
<path d="M687 2393 c-12 -11 -8 -23 8 -23 8 0 15 7 15 15 0 16 -12 20 -23 8z"/>
<path d="M5670 2360 c0 -5 5 -10 10 -10 6 0 10 5 10 10 0 6 -4 10 -10 10 -5 0&#xA;-10 -4 -10 -10z"/>
<path d="M740 2330 c0 -5 5 -10 10 -10 6 0 10 5 10 10 0 6 -4 10 -10 10 -5 0&#xA;-10 -4 -10 -10z"/>
<path d="M5616 2333 c-11 -11 -6 -23 9 -23 8 0 15 4 15 9 0 13 -16 22 -24 14z"/>
<path d="M5590 2306 c0 -9 5 -16 10 -16 6 0 10 4 10 9 0 6 -4 13 -10 16 -5 3&#xA;-10 -1 -10 -9z"/>
<path d="M760 2286 c0 -9 5 -16 10 -16 6 0 10 4 10 9 0 6 -4 13 -10 16 -5 3&#xA;-10 -1 -10 -9z"/>
<path d="M5665 2260 c-3 -5 -1 -10 4 -10 6 0 11 5 11 10 0 6 -2 10 -4 10 -3 0&#xA;-8 -4 -11 -10z"/>
<path d="M5600 2250 c0 -15 21 -23 32 -12 6 6 2 11 -11 15 -12 3 -21 1 -21 -3z"/>
<path d="M5683 2207 c3 -9 1 -18 -6 -20 -9 -3 -9 -8 2 -20 11 -14 11 -18 -3&#xA;-23 -27 -10 -18 -20 19 -21 41 -1 42 1 15 29 -11 13 -18 29 -15 39 3 10 0 21&#xA;-6 25 -9 5 -10 2 -6 -9z"/>
<path d="M630 2200 c0 -5 9 -10 20 -10 11 0 20 5 20 10 0 6 -9 10 -20 10 -11&#xA;0 -20 -4 -20 -10z"/>
<path d="M710 2185 c0 -8 5 -15 10 -15 6 0 10 7 10 15 0 8 -4 15 -10 15 -5 0&#xA;-10 -7 -10 -15z"/>
<path d="M5715 2190 c3 -5 13 -10 21 -10 8 0 14 5 14 10 0 6 -9 10 -21 10 -11&#xA;0 -17 -4 -14 -10z"/>
<path d="M5605 2121 c-6 -11 9 -23 19 -14 9 9 7 23 -3 23 -6 0 -12 -4 -16 -9z"/>
<path d="M5710 2100 c-11 -11 -20 -24 -20 -30 0 -16 -27 -11 -34 6 -11 28 -16&#xA;10 -7 -22 5 -16 10 -23 10 -16 1 6 10 12 22 12 11 0 17 -4 14 -10 -3 -5 -1&#xA;-10 4 -10 6 0 11 8 11 19 0 10 9 30 21 45 24 30 8 35 -21 6z"/>
<path d="M5590 2049 c0 -5 5 -7 10 -4 6 3 10 8 10 11 0 2 -4 4 -10 4 -5 0 -10&#xA;-5 -10 -11z"/>
<path d="M5639 1983 c0 -5 -2 -20 -4 -35 -2 -15 1 -30 6 -33 5 -4 9 1 9 9 0&#xA;16 20 18 31 2 14 -18 16 11 3 39 -10 21 -12 23 -8 6 4 -16 3 -21 -5 -17 -6 4&#xA;-11 14 -11 22 0 14 -19 21 -21 7z"/>
<path d="M5712 1969 c-7 -12 -11 -24 -7 -27 7 -8 25 17 25 36 0 17 -3 15 -18&#xA;-9z"/>
<path d="M5582 1925 c-13 -29 -8 -32 15 -9 10 10 12 19 6 25 -6 6 -14 0 -21&#xA;-16z"/>
<path d="M5731 1914 c0 -11 3 -14 6 -6 3 7 2 16 -1 19 -3 4 -6 -2 -5 -13z"/>
<path d="M730 1908 c0 -7 4 -19 9 -27 11 -17 23 1 15 23 -7 19 -24 21 -24 4z"/>
<path d="M5590 1871 c0 -5 11 -8 25 -8 13 0 22 3 19 8 -3 5 -14 9 -25 9 -10 0&#xA;-19 -4 -19 -9z"/>
<path d="M660 1819 c0 -5 5 -7 10 -4 6 3 10 8 10 11 0 2 -4 4 -10 4 -5 0 -10&#xA;-5 -10 -11z"/>
<path d="M5635 1820 c-3 -5 -2 -10 4 -10 5 0 13 5 16 10 3 6 2 10 -4 10 -5 0&#xA;-13 -4 -16 -10z"/>
<path d="M5580 1810 c0 -5 5 -10 10 -10 6 0 10 5 10 10 0 6 -4 10 -10 10 -5 0&#xA;-10 -4 -10 -10z"/>
<path d="M730 1801 c0 -5 5 -13 10 -16 6 -3 10 -2 10 4 0 5 -4 13 -10 16 -5 3&#xA;-10 2 -10 -4z"/>
<path d="M678 1741 c-5 -37 0 -51 20 -51 13 0 14 2 4 9 -8 5 -11 17 -7 33 4&#xA;14 2 29 -3 32 -5 3 -12 -7 -14 -23z"/>
<path d="M5675 1730 c-3 -5 -1 -10 4 -10 6 0 11 5 11 10 0 6 -2 10 -4 10 -3 0&#xA;-8 -4 -11 -10z"/>
<path d="M755 1710 c-3 -5 1 -10 9 -10 8 0 18 5 21 10 3 6 -1 10 -9 10 -8 0&#xA;-18 -4 -21 -10z"/>
<path d="M5700 1691 c0 -6 4 -13 10 -16 6 -3 7 1 4 9 -7 18 -14 21 -14 7z"/>
<path d="M5586 1667 c-17 -13 -17 -14 0 -28 16 -12 17 -12 11 3 -4 11 0 21 11&#xA;27 9 6 12 11 6 11 -5 0 -18 -6 -28 -13z"/>
<path d="M725 1662 c-1 -2 4 -18 13 -35 16 -30 17 -30 20 -9 2 12 8 22 13 22&#xA;5 0 9 6 9 13 0 10 -46 18 -55 9z"/>
<path d="M688 1598 c7 -7 12 -20 12 -30 0 -10 4 -18 10 -18 5 0 18 -10 30 -22&#xA;l20 -22 0 36 c0 31 -5 39 -32 52 -37 19 -57 21 -40 4z"/>
<path d="M5605 1580 c-3 -5 -1 -10 4 -10 6 0 11 5 11 10 0 6 -2 10 -4 10 -3 0&#xA;-8 -4 -11 -10z"/>
<path d="M5630 1540 c0 -5 5 -10 11 -10 5 0 7 5 4 10 -3 6 -8 10 -11 10 -2 0&#xA;-4 -4 -4 -10z"/>
<path d="M5570 1485 c0 -9 5 -15 11 -13 6 2 11 8 11 13 0 5 -5 11 -11 13 -6 2&#xA;-11 -4 -11 -13z"/>
<path d="M5620 1489 c0 -5 5 -7 10 -4 6 3 10 8 10 11 0 2 -4 4 -10 4 -5 0 -10&#xA;-5 -10 -11z"/>
<path d="M5700 1430 c6 -11 15 -18 21 -14 6 4 6 11 -2 20 -17 21 -31 17 -19&#xA;-6z"/>
<path d="M670 1419 c0 -5 5 -7 10 -4 6 3 10 8 10 11 0 2 -4 4 -10 4 -5 0 -10&#xA;-5 -10 -11z"/>
<path d="M5574 1396 c-8 -22 3 -33 18 -18 9 9 9 15 0 24 -9 9 -13 7 -18 -6z"/>
<path d="M5699 1370 c-1 -5 -2 -14 -3 -19 0 -5 -4 -12 -8 -16 -13 -13 4 -34&#xA;25 -30 35 7 42 22 23 49 -17 26 -35 34 -37 16z"/>
<path d="M694 1349 c-8 -14 11 -33 25 -25 6 4 11 11 11 16 0 13 -29 20 -36 9z"/>
<path d="M5648 1338 c-27 -9 -39 -28 -19 -28 5 0 13 -10 16 -21 6 -17 9 -19&#xA;16 -8 6 9 3 18 -6 25 -19 14 -19 24 -1 24 8 0 18 5 21 10 3 6 5 10 3 9 -2 0&#xA;-15 -5 -30 -11z"/>
<path d="M5570 1309 c0 -11 5 -17 10 -14 6 3 10 13 10 21 0 8 -4 14 -10 14 -5&#xA;0 -10 -9 -10 -21z"/>
<path d="M717 1280 c-16 -24 -16 -24 16 -35 39 -14 45 -11 25 12 -9 10 -17 24&#xA;-20 32 -3 11 -9 9 -21 -9z"/>
<path d="M5695 1249 c-16 -10 -30 -23 -29 -29 1 -5 2 -17 3 -26 0 -8 6 -12 11&#xA;-9 6 4 8 11 5 16 -4 5 -2 9 3 9 4 0 18 14 30 30 26 34 20 37 -23 9z m-5 -23&#xA;c0 -3 -4 -8 -10 -11 -5 -3 -10 -1 -10 4 0 6 5 11 10 11 6 0 10 -2 10 -4z"/>
<path d="M5615 1250 c-3 -5 1 -10 9 -10 9 0 16 5 16 10 0 6 -4 10 -9 10 -6 0&#xA;-13 -4 -16 -10z"/>
<path d="M728 1193 c-10 -2 -18 -11 -18 -19 0 -20 27 -29 45 -14 8 6 19 9 25&#xA;5 5 -3 10 1 10 9 0 9 -4 16 -9 16 -5 0 -15 2 -23 4 -7 2 -21 2 -30 -1z"/>
<path d="M5720 1134 c0 -17 22 -14 28 4 2 7 -3 12 -12 12 -9 0 -16 -7 -16 -16z"/>
<path d="M5604 1085 c22 -17 27 -27 19 -37 -16 -21 -23 -48 -13 -48 6 0 10 9&#xA;10 20 0 11 7 23 16 27 13 5 10 11 -12 34 -15 16 -33 29 -38 29 -6 -1 2 -11 18&#xA;-25z"/>
<path d="M5640 1099 c0 -5 5 -7 10 -4 6 3 10 8 10 11 0 2 -4 4 -10 4 -5 0 -10&#xA;-5 -10 -11z"/>
<path d="M5682 1075 c-11 -12 -10 -15 3 -15 8 0 15 7 15 15 0 18 -2 18 -18 0z"/>
<path d="M740 1034 c0 -8 5 -12 10 -9 6 3 10 10 10 16 0 5 -4 9 -10 9 -5 0&#xA;-10 -7 -10 -16z"/>
<path d="M5706 1014 c-4 -9 -4 -19 -1 -22 3 -3 5 0 5 6 0 7 7 12 16 12 8 0 12&#xA;5 9 10 -9 15 -22 12 -29 -6z"/>
<path d="M750 980 c0 -5 5 -10 10 -10 6 0 10 5 10 10 0 6 -4 10 -10 10 -5 0&#xA;-10 -4 -10 -10z"/>
<path d="M5591 983 c-1 -7 -8 -13 -16 -13 -17 0 -19 -9 -6 -29 7 -11 11 -9 21&#xA;8 6 12 9 27 6 34 -3 9 -5 9 -5 0z"/>
<path d="M650 969 c0 -5 5 -7 10 -4 6 3 10 8 10 11 0 2 -4 4 -10 4 -5 0 -10&#xA;-5 -10 -11z"/>
<path d="M675 930 c-3 -5 1 -10 9 -10 9 0 16 5 16 10 0 6 -4 10 -9 10 -6 0&#xA;-13 -4 -16 -10z"/>
<path d="M5595 820 c-3 -5 1 -10 10 -10 9 0 13 5 10 10 -3 6 -8 10 -10 10 -2&#xA;0 -7 -4 -10 -10z"/>
<path d="M730 780 c0 -5 5 -10 10 -10 6 0 10 5 10 10 0 6 -4 10 -10 10 -5 0&#xA;-10 -4 -10 -10z"/>
<path d="M5600 769 c0 -6 8 -13 18 -16 10 -2 25 -16 34 -30 9 -15 18 -21 22&#xA;-15 3 6 -8 24 -25 41 -32 32 -49 39 -49 20z"/>
<path d="M5570 724 c1 -18 37 -77 42 -68 3 5 -6 24 -19 43 -12 19 -23 30 -23&#xA;25z"/>
<path d="M752 689 c2 -7 10 -15 17 -17 8 -3 12 1 9 9 -2 7 -10 15 -17 17 -8 3&#xA;-12 -1 -9 -9z"/>
<path d="M697 673 c-11 -10 -8 -20 8 -27 9 -3 19 3 25 14 9 17 7 20 -8 20 -10&#xA;0 -22 -3 -25 -7z"/>
<path d="M5646 665 c4 -8 10 -15 15 -15 4 0 6 7 3 15 -4 8 -10 15 -15 15 -4 0&#xA;-6 -7 -3 -15z"/>
<path d="M790 656 c0 -9 7 -16 16 -16 9 0 14 5 12 12 -6 18 -28 21 -28 4z"/>
<path d="M2390 644 c0 -8 5 -12 10 -9 6 3 10 10 10 16 0 5 -4 9 -10 9 -5 0&#xA;-10 -7 -10 -16z"/>
<path d="M2940 644 l-25 -14 33 0 c22 0 32 5 32 15 0 18 -7 18 -40 -1z"/>
<path d="M3470 644 c0 -8 5 -12 10 -9 6 4 8 11 5 16 -9 14 -15 11 -15 -7z"/>
<path d="M3650 650 c0 -5 6 -10 13 -10 8 0 19 -11 25 -25 15 -33 36 -32 62 5&#xA;19 27 17 34 -7 28 -5 0 -7 -9 -5 -19 5 -30 -14 -29 -43 1 -30 31 -45 38 -45&#xA;20z"/>
<path d="M4306 652 c-6 -5 24 -31 37 -32 4 0 7 6 7 14 0 14 -34 28 -44 18z"/>
<path d="M5303 639 c-2 -17 1 -18 12 -9 8 7 12 16 9 21 -9 16 -20 10 -21 -12z"/>
<path d="M1630 634 c0 -8 5 -12 10 -9 6 3 10 10 10 16 0 5 -4 9 -10 9 -5 0&#xA;-10 -7 -10 -16z"/>
<path d="M2820 640 c0 -5 5 -10 10 -10 6 0 10 5 10 10 0 6 -4 10 -10 10 -5 0&#xA;-10 -4 -10 -10z"/>
<path d="M3005 630 c-22 -24 -13 -50 17 -50 19 0 20 2 8 10 -8 5 -11 10 -5 10&#xA;5 0 4 5 -3 12 -9 9 -7 14 6 24 9 8 12 14 6 14 -6 0 -19 -9 -29 -20z"/>
<path d="M3543 643 c-26 -5 -29 -15 -9 -32 10 -9 15 -8 20 4 3 8 13 15 21 15&#xA;9 0 13 5 10 10 -3 6 -9 9 -13 9 -4 -1 -17 -4 -29 -6z"/>
<path d="M5070 625 c0 -15 4 -24 10 -20 6 3 10 12 10 20 0 8 -4 17 -10 20 -6&#xA;4 -10 -5 -10 -20z"/>
<path d="M5555 641 c-3 -5 -1 -12 5 -16 5 -3 10 1 10 9 0 18 -6 21 -15 7z"/>
<path d="M1398 634 c-26 -26 21 -77 57 -63 20 8 17 10 -20 13 -13 1 -21 10&#xA;-25 29 -3 16 -8 25 -12 21z"/>
<path d="M2000 629 c0 -5 5 -7 10 -4 6 3 10 8 10 11 0 2 -4 4 -10 4 -5 0 -10&#xA;-5 -10 -11z"/>
<path d="M2096 624 c-4 -9 -4 -19 -1 -22 2 -3 7 3 11 12 4 9 4 19 1 22 -2 3&#xA;-7 -3 -11 -12z"/>
<path d="M2786 621 c-10 -11 -15 -25 -11 -31 5 -7 12 -1 21 16 18 34 13 40&#xA;-10 15z"/>
<path d="M3070 625 c0 -16 9 -19 34 -9 25 9 19 24 -9 24 -16 0 -25 -6 -25 -15z"/>
<path d="M4626 631 c-4 -5 3 -7 14 -4 23 6 26 13 6 13 -8 0 -17 -4 -20 -9z"/>
<path d="M5675 630 c4 -6 11 -8 16 -5 14 9 11 15 -7 15 -8 0 -12 -5 -9 -10z"/>
<path d="M2626 614 c-14 -35 -6 -47 14 -21 24 30 25 37 6 37 -8 0 -17 -7 -20&#xA;-16z"/>
<path d="M3301 603 l-13 -28 21 22 c23 24 26 33 13 33 -5 0 -14 -12 -21 -27z"/>
<path d="M4367 611 c-3 -14 0 -17 14 -14 15 4 17 8 8 19 -15 18 -16 18 -22 -5z"/>
<path d="M690 610 c0 -5 7 -10 16 -10 8 0 12 5 9 10 -3 6 -10 10 -16 10 -5 0&#xA;-9 -4 -9 -10z"/>
<path d="M2185 610 c-3 -5 -1 -10 4 -10 6 0 11 5 11 10 0 6 -2 10 -4 10 -3 0&#xA;-8 -4 -11 -10z"/>
<path d="M2440 610 c0 -5 5 -10 10 -10 6 0 10 5 10 10 0 6 -4 10 -10 10 -5 0&#xA;-10 -4 -10 -10z"/>
<path d="M2688 610 c12 -5 22 -14 22 -20 0 -5 5 -10 10 -10 6 0 10 6 10 14 0&#xA;15 -22 26 -48 25 -12 0 -10 -3 6 -9z"/>
<path d="M2945 610 c3 -5 8 -10 11 -10 2 0 4 5 4 10 0 6 -5 10 -11 10 -5 0 -7&#xA;-4 -4 -10z"/>
<path d="M3200 609 c0 -5 5 -7 10 -4 6 3 10 8 10 11 0 2 -4 4 -10 4 -5 0 -10&#xA;-5 -10 -11z"/>
<path d="M3990 610 c0 -5 20 -18 44 -29 24 -11 46 -28 50 -36 6 -17 26 -12 26&#xA;6 0 6 -4 8 -9 4 -5 -3 -19 7 -30 21 -12 15 -24 24 -28 20 -3 -3 -17 1 -30 9&#xA;-13 9 -23 11 -23 5z"/>
<path d="M4147 613 c-4 -3 -7 -11 -7 -17 0 -6 5 -5 12 2 6 6 9 14 7 17 -3 3&#xA;-9 2 -12 -2z"/>
<path d="M5025 610 c3 -5 8 -10 11 -10 2 0 4 5 4 10 0 6 -5 10 -11 10 -5 0 -7&#xA;-4 -4 -10z"/>
<path d="M5386 603 c-6 -14 -5 -15 5 -6 7 7 10 15 7 18 -3 3 -9 -2 -12 -12z"/>
<path d="M1107 604 c-12 -13 -7 -34 8 -34 8 0 15 -6 15 -14 0 -24 26 -38 40&#xA;-21 15 19 -3 47 -26 38 -8 -3 -17 3 -22 16 -4 12 -11 19 -15 15z"/>
<path d="M1588 598 c-5 -14 27 -48 45 -48 7 1 5 6 -5 14 -10 7 -18 21 -18 30&#xA;0 18 -16 22 -22 4z"/>
<path d="M2567 594 c3 -7 9 -14 14 -14 14 0 10 17 -5 23 -10 4 -13 1 -9 -9z"/>
<path d="M3906 595 c-3 -8 3 -19 14 -25 26 -14 28 -13 22 15 -5 27 -27 34 -36&#xA;10z"/>
<path d="M4270 602 c0 -2 8 -17 17 -32 15 -27 15 -30 -1 -55 -19 -29 -16 -41&#xA;9 -32 8 4 15 17 15 31 0 45 37 40 53 -7 2 -6 9 -7 16 -3 9 6 8 11 -6 23 -13&#xA;10 -15 16 -5 19 18 8 15 27 -4 20 -9 -4 -25 -4 -35 -1 -21 7 -25 31 -6 38 6 2&#xA;-3 4 -20 4 -18 0 -33 -2 -33 -5z"/>
<path d="M4776 594 c-4 -10 -1 -21 6 -25 16 -10 25 18 10 33 -6 6 -12 3 -16&#xA;-8z"/>
<path d="M5267 603 c-10 -9 -9 -23 2 -23 5 0 11 7 15 15 5 15 -5 20 -17 8z"/>
<path d="M2387 593 c-11 -11 -8 -20 8 -20 8 0 15 6 15 14 0 14 -12 17 -23 6z"/>
<path d="M4090 591 c0 -5 9 -11 20 -14 24 -6 27 8 4 17 -21 8 -24 8 -24 -3z"/>
<path d="M1236 573 c-6 -14 14 -17 52 -7 33 9 27 20 -13 20 -19 0 -37 -6 -39&#xA;-13z"/>
<path d="M1653 578 c2 -7 10 -13 17 -13 7 0 15 6 18 13 2 7 -5 12 -18 12 -13&#xA;0 -20 -5 -17 -12z"/>
<path d="M2486 578 c3 -5 10 -6 15 -3 13 9 11 12 -6 12 -8 0 -12 -4 -9 -9z"/>
<path d="M3595 580 c-3 -5 -1 -10 4 -10 6 0 11 5 11 10 0 6 -2 10 -4 10 -3 0&#xA;-8 -4 -11 -10z"/>
<path d="M4675 580 c-3 -5 1 -10 10 -10 9 0 13 5 10 10 -3 6 -8 10 -10 10 -2&#xA;0 -7 -4 -10 -10z"/>
<path d="M4817 570 c-11 -16 -13 -26 -6 -29 16 -5 31 14 27 35 -3 17 -5 16&#xA;-21 -6z"/>
<path d="M4938 583 c-31 -4 -38 -8 -38 -26 0 -14 3 -18 8 -10 7 11 35 20 70&#xA;22 6 1 12 6 12 11 0 6 -3 9 -7 8 -5 -1 -25 -3 -45 -5z"/>
<path d="M5120 580 c-8 -5 -19 -6 -25 -3 -6 4 -6 2 1 -6 7 -8 19 -9 34 -3 13&#xA;5 19 11 14 15 -6 3 -16 2 -24 -3z"/>
<path d="M5193 570 c19 -15 31 -18 49 -11 22 9 21 10 -9 10 -17 1 -35 6 -38&#xA;11 -3 6 -11 10 -17 10 -6 0 1 -9 15 -20z"/>
<path d="M5332 574 c9 -9 21 -13 27 -9 16 10 3 25 -22 25 -20 0 -20 -1 -5 -16z"/>
<path d="M5680 580 c-9 -6 -10 -10 -3 -10 6 0 15 5 18 10 8 12 4 12 -15 0z"/>
<path d="M3050 572 c0 -4 8 -15 19 -24 20 -17 45 -10 32 10 -8 14 -51 25 -51&#xA;14z"/>
<path d="M3850 570 c-13 -9 -13 -10 0 -10 8 0 22 5 30 10 13 9 13 10 0 10 -8&#xA;0 -22 -5 -30 -10z"/>
<path d="M5020 570 c-8 -5 -12 -12 -9 -15 4 -3 12 1 19 10 14 17 11 19 -10 5z"/>
<path d="M1535 560 c3 -5 12 -7 20 -3 21 7 19 13 -6 13 -11 0 -18 -4 -14 -10z"/>
<path d="M2540 560 c0 -5 7 -10 15 -10 8 0 15 5 15 10 0 6 -7 10 -15 10 -8 0&#xA;-15 -4 -15 -10z"/>
<path d="M3005 560 c4 -6 11 -8 16 -5 14 9 11 15 -7 15 -8 0 -12 -5 -9 -10z"/>
<path d="M4732 550 c9 -13 16 -16 23 -9 7 7 5 13 -5 19 -24 15 -31 11 -18 -10z"/>
<path d="M5280 560 c0 -5 7 -10 16 -10 8 0 12 5 9 10 -3 6 -10 10 -16 10 -5 0&#xA;-9 -4 -9 -10z"/>
<path d="M1050 550 c0 -5 7 -10 15 -10 8 0 15 5 15 10 0 6 -7 10 -15 10 -8 0&#xA;-15 -4 -15 -10z"/>
<path d="M1980 544 c0 -8 5 -12 10 -9 6 4 8 11 5 16 -9 14 -15 11 -15 -7z"/>
<path d="M2390 544 c0 -8 5 -12 10 -9 6 3 10 10 10 16 0 5 -4 9 -10 9 -5 0&#xA;-10 -7 -10 -16z"/>
<path d="M3156 553 c5 -5 12 -12 16 -18 4 -6 8 -2 8 8 0 9 -7 17 -17 17 -9 0&#xA;-12 -3 -7 -7z"/>
<path d="M3303 550 c-24 -10 -30 -25 -13 -35 6 -3 17 1 26 10 13 12 19 13 30&#xA;4 8 -7 17 -9 21 -5 4 3 -2 13 -13 21 -22 17 -22 17 -51 5z"/>
<path d="M3606 541 c-15 -16 -15 -20 -1 -31 8 -7 12 -16 9 -21 -3 -5 -1 -9 5&#xA;-9 5 0 18 -3 28 -7 17 -7 17 -6 0 11 -9 10 -15 22 -12 27 4 5 1 9 -6 9 -6 0&#xA;-9 8 -6 20 6 25 4 25 -17 1z"/>
<path d="M4410 551 c0 -5 5 -13 10 -16 6 -3 10 -2 10 4 0 5 -4 13 -10 16 -5 3&#xA;-10 2 -10 -4z"/>
<path d="M4846 545 c-3 -8 -1 -15 4 -15 6 0 10 7 10 15 0 8 -2 15 -4 15 -2 0&#xA;-6 -7 -10 -15z"/>
<path d="M5656 543 c-6 -14 -5 -15 5 -6 7 7 10 15 7 18 -3 3 -9 -2 -12 -12z"/>
<path d="M2265 540 c3 -5 10 -10 16 -10 5 0 9 5 9 10 0 6 -7 10 -16 10 -8 0&#xA;-12 -4 -9 -10z"/>
<path d="M2320 534 c0 -8 -3 -13 -7 -11 -5 3 -9 -5 -9 -18 -2 -21 0 -22 17&#xA;-12 16 10 21 9 29 -3 6 -9 10 -10 10 -3 0 6 -5 15 -11 19 -8 4 -8 8 0 13 6 4&#xA;3 11 -9 19 -17 10 -20 10 -20 -4z"/>
<path d="M3485 540 c3 -5 8 -10 11 -10 2 0 4 5 4 10 0 6 -5 10 -11 10 -5 0 -7&#xA;-4 -4 -10z"/>
<path d="M1256 531 c-4 -7 -5 -15 -2 -18 9 -9 19 4 14 18 -4 11 -6 11 -12 0z"/>
<path d="M2112 527 c-8 -9 -4 -12 14 -13 26 -2 33 11 10 19 -8 3 -19 0 -24 -6z"/>
<path d="M2496 523 c-6 -14 -5 -15 5 -6 7 7 10 15 7 18 -3 3 -9 -2 -12 -12z"/>
<path d="M2686 531 c-4 -7 -5 -15 -2 -18 9 -9 19 4 14 18 -4 11 -6 11 -12 0z"/>
<path d="M2980 529 c0 -9 7 -20 16 -23 20 -8 57 12 48 25 -4 7 -12 5 -22 -5&#xA;-14 -14 -17 -14 -28 2 -12 15 -13 15 -14 1z"/>
<path d="M4931 531 c-8 -6 -9 -11 -3 -15 6 -3 14 -1 17 5 9 14 2 20 -14 10z"/>
<path d="M1346 522 c-8 -7 27 -31 36 -26 5 3 8 9 8 13 0 10 -37 21 -44 13z"/>
<path d="M2630 514 c0 -8 5 -12 10 -9 6 4 8 11 5 16 -9 14 -15 11 -15 -7z"/>
<path d="M4707 516 c-4 -10 -1 -13 8 -9 8 3 12 9 9 14 -7 12 -11 11 -17 -5z"/>
<path d="M5014 519 c-5 -9 -2 -10 9 -6 10 3 17 2 17 -3 0 -6 7 -10 15 -10 8 0&#xA;15 5 15 10 0 6 -4 10 -9 10 -5 0 -16 3 -24 6 -8 3 -18 0 -23 -7z"/>
<path d="M746 505 c-3 -8 -1 -15 4 -15 6 0 10 7 10 15 0 8 -2 15 -4 15 -2 0&#xA;-6 -7 -10 -15z"/>
<path d="M1990 509 c0 -12 38 -31 44 -21 2 4 -7 12 -20 19 -13 6 -24 7 -24 2z"/>
<path d="M3873 502 c0 -12 10 -18 26 -19 15 -1 20 1 14 4 -7 2 -13 11 -13 19&#xA;0 8 -6 14 -14 14 -8 0 -14 -8 -13 -18z"/>
<path d="M4420 505 c-10 -12 -10 -15 4 -15 9 0 16 7 16 15 0 8 -2 15 -4 15 -2&#xA;0 -9 -7 -16 -15z"/>
<path d="M4465 510 c-3 -5 1 -10 10 -10 9 0 13 5 10 10 -3 6 -8 10 -10 10 -2&#xA;0 -7 -4 -10 -10z"/>
<path d="M5667 513 c-4 -3 2 -13 14 -21 24 -17 37 -9 19 13 -14 16 -23 19 -33&#xA;8z"/>
<path d="M2530 494 c0 -17 22 -14 28 4 2 7 -3 12 -12 12 -9 0 -16 -7 -16 -16z"/>
<path d="M3450 498 c0 -9 5 -20 10 -23 13 -8 13 5 0 25 -8 13 -10 13 -10 -2z"/>
<path d="M3760 495 c-10 -13 -9 -15 9 -15 12 0 21 6 21 15 0 8 -4 15 -9 15 -5&#xA;0 -14 -7 -21 -15z"/>
<path d="M3817 493 c-10 -9 -9 -23 1 -23 5 0 9 7 9 15 0 17 -1 18 -10 8z"/>
<path d="M6440 2824 c0 -8 5 -12 10 -9 6 4 8 11 5 16 -9 14 -15 11 -15 -7z"/>
<path d="M6015 2820 c3 -5 8 -10 11 -10 2 0 4 5 4 10 0 6 -5 10 -11 10 -5 0&#xA;-7 -4 -4 -10z"/>
<path d="M6170 2807 c0 -34 22 -75 38 -69 10 3 9 8 -4 23 -9 10 -14 25 -11 33&#xA;3 8 -1 20 -9 26 -11 10 -14 8 -14 -13z"/>
<path d="M6275 2820 c3 -5 11 -10 16 -10 6 0 7 5 4 10 -3 6 -11 10 -16 10 -6&#xA;0 -7 -4 -4 -10z"/>
<path d="M6526 2801 c-4 -7 -5 -15 -2 -18 9 -9 19 4 14 18 -4 11 -6 11 -12 0z"/>
<path d="M6010 2783 c0 -5 5 -15 10 -23 8 -12 10 -11 10 8 0 12 -4 22 -10 22&#xA;-5 0 -10 -3 -10 -7z"/>
<path d="M6050 2751 c0 -25 6 -27 13 -6 4 8 2 17 -3 20 -6 4 -10 -3 -10 -14z"/>
<path d="M6244 2742 c-12 -8 -16 -52 -4 -52 8 0 24 49 18 56 -2 1 -8 0 -14 -4z"/>
<path d="M6415 2740 c-3 -5 1 -10 9 -10 9 0 16 5 16 10 0 6 -4 10 -9 10 -6 0&#xA;-13 -4 -16 -10z"/>
<path d="M6328 2734 c-6 -5 1 -44 7 -44 15 0 35 15 35 25 0 7 -7 16 -16 19&#xA;-19 7 -19 7 -26 0z"/>
<path d="M5975 2719 c-4 -6 -5 -13 -2 -16 7 -7 27 6 27 18 0 12 -17 12 -25 -2z"/>
<path d="M6036 2684 c-40 -36 -51 -40 -61 -24 -8 13 -35 1 -35 -15 0 -9 13&#xA;-14 40 -13 22 0 40 4 40 9 0 5 4 9 9 9 5 0 9 -32 9 -71 0 -56 -3 -69 -14 -65&#xA;-18 7 -17 -2 1 -34 8 -14 14 -51 15 -82 0 -47 -3 -56 -15 -52 -13 5 -13 3 0&#xA;-22 13 -23 15 -64 14 -209 -2 -114 -6 -183 -13 -188 -8 -6 -7 -10 2 -14 7 -3&#xA;12 -25 12 -59 0 -47 -2 -54 -20 -54 -11 0 -20 -4 -20 -10 0 -5 9 -14 20 -20&#xA;19 -10 20 -21 20 -295 0 -157 -4 -285 -8 -285 -4 0 -13 5 -20 12 -9 9 -12 7&#xA;-12 -11 0 -18 4 -22 20 -18 17 4 20 0 20 -24 0 -22 -5 -29 -20 -29 -13 0 -18&#xA;-5 -13 -16 3 -8 12 -13 20 -10 11 5 14 -2 11 -27 -3 -30 -5 -32 -38 -29 l-35&#xA;2 35 -17 35 -18 2 -85 c1 -47 -3 -90 -9 -97 -7 -9 -7 -13 1 -13 6 0 11 -11 11&#xA;-25 0 -17 -6 -25 -17 -25 -15 0 -15 -1 0 -18 19 -20 23 -62 7 -62 -5 0 -10 -4&#xA;-10 -8 0 -5 10 -8 23 -8 12 1 21 -4 19 -12 -1 -6 2 -12 6 -12 14 0 42 35 42&#xA;53 0 25 34 30 148 22 91 -6 105 -10 109 -26 4 -14 14 -19 39 -19 29 0 34 3 34&#xA;24 0 14 5 28 11 32 8 5 6 10 -5 16 -22 12 -20 34 4 65 24 31 25 43 5 43 -10 0&#xA;-15 10 -15 30 0 27 3 30 28 28 15 -2 28 2 29 7 2 6 -6 10 -16 10 -27 0 -34 11&#xA;-23 32 8 13 7 22 -3 33 -8 9 -15 36 -17 60 -3 42 -1 45 20 42 20 -3 22 1 22&#xA;38 0 27 5 43 15 46 20 8 1 34 -25 34 -10 0 -22 6 -27 12 -5 7 -6 83 -3 171 4&#xA;121 8 160 19 167 18 10 21 61 5 67 -11 4 -31 107 -25 128 2 6 3 111 2 235 -1&#xA;124 -1 279 -1 345 0 66 0 137 0 158 0 22 5 48 11 59 8 14 8 23 0 31 -18 18&#xA;-13 44 10 50 12 3 18 10 14 17 -4 6 -13 9 -21 6 -7 -3 -16 -1 -19 4 -10 16&#xA;-61 12 -75 -5 -11 -13 -35 -15 -129 -13 -106 3 -116 5 -114 22 1 15 -4 17 -29&#xA;12 -26 -5 -29 -4 -18 9 26 32 3 32 -34 -1z m269 -84 c-74 -12 -185 -12 -185 0&#xA;0 6 45 9 118 9 95 -1 108 -3 67 -9z m-52 -47 c-23 -2 -64 -2 -90 0 -26 2 -7 3&#xA;42 3 50 0 71 -1 48 -3z m107 -47 c0 -10 -26 -15 -104 -21 -111 -7 -146 -2&#xA;-146 21 0 11 23 14 125 14 100 0 125 -3 125 -14z m-105 -56 c-45 -11 -123 -11&#xA;-130 0 -4 6 24 10 77 9 59 -1 75 -4 53 -9z m31 -37 c77 -7 78 -7 34 -14 -66&#xA;-11 -198 -10 -204 0 -13 21 44 25 170 14z m43 -49 c67 -14 25 -24 -94 -24&#xA;-114 0 -137 5 -118 23 8 9 170 9 212 1z m-116 -61 c-18 -2 -48 -2 -65 0 -18 2&#xA;-4 4 32 4 36 0 50 -2 33 -4z m30 -50 c-23 -2 -64 -2 -90 0 -26 2 -7 3 42 3 50&#xA;0 71 -1 48 -3z m104 -39 c52 -14 4 -24 -113 -24 -113 0 -136 5 -117 23 8 9&#xA;200 9 230 1z m-37 -54 l55 -7 -50 -2 c-27 -2 -75 -4 -105 -7 -68 -4 -111 3&#xA;-89 17 17 10 111 10 189 -1z m-5 -60 c-90 -12 -183 -11 -190 0 -4 6 39 9 122&#xA;9 108 -2 118 -3 68 -9z m-30 -50 c-28 -12 -153 -12 -160 0 -4 6 27 10 87 9 61&#xA;0 86 -3 73 -9z m12 -37 c45 -3 80 -10 77 -14 -7 -12 -254 -11 -254 0 0 21 46&#xA;25 177 14z m18 -63 c-91 -12 -195 -11 -195 0 0 6 48 9 128 9 107 -2 118 -3 67&#xA;-9z m50 -50 c-4 -6 -57 -10 -126 -10 -73 0 -119 4 -119 10 0 6 49 10 126 10&#xA;81 0 123 -4 119 -10z m11 -42 c15 -16 -8 -20 -130 -25 -125 -6 -126 -6 -126&#xA;16 0 22 1 23 124 19 69 -2 128 -6 132 -10z m-81 -58 c-28 -12 -175 -12 -175 0&#xA;0 6 39 10 98 9 63 0 90 -3 77 -9z m75 -50 c0 -6 -48 -10 -125 -10 -77 0 -125&#xA;4 -125 10 0 6 48 10 125 10 77 0 125 -4 125 -10z m0 -50 c0 -6 -48 -10 -125&#xA;-10 -77 0 -125 4 -125 10 0 6 48 10 125 10 77 0 125 -4 125 -10z m0 -50 c0 -6&#xA;-48 -10 -125 -10 -77 0 -125 4 -125 10 0 6 48 10 125 10 77 0 125 -4 125 -10z&#xA;m9 -46 c14 -12 -24 -19 -134 -22 -108 -4 -125 -2 -125 11 0 9 10 18 23 20 24&#xA;4 229 -4 236 -9z m-9 -54 c0 -6 -48 -10 -125 -10 -77 0 -125 4 -125 10 0 6 48&#xA;10 125 10 77 0 125 -4 125 -10z m-5 -50 c4 -6 -38 -10 -119 -10 -77 0 -126 4&#xA;-126 10 0 6 46 10 119 10 69 0 122 -4 126 -10z m15 -49 c0 -11 -210 -25 -239&#xA;-16 -51 16 -12 25 109 25 72 0 130 -4 130 -9z m-70 -51 c10 -7 -18 -10 -87&#xA;-10 -62 0 -103 4 -103 10 0 13 170 13 190 0z m53 -7 c-7 -2 -19 -2 -25 0 -7 3&#xA;-2 5 12 5 14 0 19 -2 13 -5z m-68 -43 c20 -5 -5 -8 -75 -9 -71 0 -100 2 -90 9&#xA;17 11 121 11 165 0z m79 -49 c8 -12 -172 -25 -219 -17 -19 4 -35 11 -35 16 0&#xA;13 247 13 254 1z m1 -51 c4 -6 -19 -11 -62 -11 -37 -1 -88 -3 -113 -4 -53 -2&#xA;-80 4 -80 16 0 13 247 11 255 -1z m-70 -48 l70 -7 -95 -5 c-112 -6 -169 -2&#xA;-149 11 17 11 82 11 174 1z m175 -32 c0 -5 -4 -10 -9 -10 -6 0 -13 5 -16 10&#xA;-3 6 1 10 9 10 9 0 16 -4 16 -10z m-237 -27 c-24 -2 -62 -2 -85 0 -24 2 -5 4&#xA;42 4 47 0 66 -2 43 -4z m116 -42 c9 -6 -20 -11 -80 -16 -110 -8 -151 -5 -157&#xA;13 -3 9 23 12 110 12 62 0 119 -4 127 -9z m-39 -51 c51 -7 52 -7 15 -9 -22 -1&#xA;-72 -4 -112 -8 -79 -6 -118 1 -93 17 17 11 111 11 190 0z m-7 -57 c-34 -2 -93&#xA;-2 -130 0 -37 2 -9 3 62 3 72 0 102 -1 68 -3z m55 -39 c7 -2 10 -8 7 -14 -4&#xA;-6 -58 -10 -131 -10 -101 0 -124 3 -124 14 0 8 8 17 18 19 19 5 209 -2 230 -9z&#xA;m-141 -61 c-20 -2 -52 -2 -70 0 -17 2 0 4 38 4 39 0 53 -2 32 -4z m141 -45&#xA;c-3 -9 -40 -14 -126 -16 -104 -2 -122 0 -122 13 0 13 20 15 126 15 96 0 125&#xA;-3 122 -12z m-100 -49 c52 -1 60 -3 37 -9 -44 -11 -175 -12 -175 -1 0 11 38&#xA;20 58 15 8 -2 44 -5 80 -5z m-20 -56 c-21 -2 -57 -2 -80 0 -24 2 -7 4 37 4 44&#xA;0 63 -2 43 -4z"/>
<path d="M6500 2616 c0 -14 29 -31 38 -21 6 6 -18 35 -29 35 -5 0 -9 -6 -9&#xA;-14z"/>
<path d="M5956 2475 c-3 -9 0 -15 9 -15 16 0 20 16 6 24 -5 3 -11 -1 -15 -9z"/>
<path d="M6520 2460 c0 -5 5 -10 10 -10 6 0 10 5 10 10 0 6 -4 10 -10 10 -5 0&#xA;-10 -4 -10 -10z"/>
<path d="M5970 2273 c0 -5 7 -17 15 -27 8 -11 15 -28 15 -38 0 -10 7 -18 16&#xA;-18 13 0 14 3 4 15 -6 8 -10 20 -8 27 2 6 -4 20 -14 30 -19 19 -28 23 -28 11z"/>
<path d="M5936 2231 c-6 -10 22 -37 29 -29 8 7 -5 38 -15 38 -5 0 -11 -4 -14&#xA;-9z"/>
<path d="M6520 2110 c0 -5 5 -10 10 -10 6 0 10 5 10 10 0 6 -4 10 -10 10 -5 0&#xA;-10 -4 -10 -10z"/>
<path d="M5950 2060 c-13 -9 -13 -11 0 -20 11 -7 16 -5 18 5 5 20 19 19 31 -2&#xA;9 -16 10 -15 8 5 -1 24 -30 30 -57 12z"/>
<path d="M5980 1985 c-7 -9 -8 -15 -2 -15 5 0 12 7 16 15 3 8 4 15 2 15 -2 0&#xA;-9 -7 -16 -15z"/>
<path d="M5945 1960 c3 -5 8 -10 11 -10 2 0 4 5 4 10 0 6 -5 10 -11 10 -5 0&#xA;-7 -4 -4 -10z"/>
<path d="M5965 1900 c-3 -5 -1 -10 4 -10 6 0 11 5 11 10 0 6 -2 10 -4 10 -3 0&#xA;-8 -4 -11 -10z"/>
<path d="M5926 1876 c3 -9 11 -16 16 -16 13 0 5 23 -10 28 -7 2 -10 -2 -6 -12z"/>
<path d="M5987 1853 c-10 -9 -9 -23 1 -23 5 0 9 7 9 15 0 17 -1 18 -10 8z"/>
<path d="M5921 1829 c0 -15 5 -29 12 -32 8 -3 14 1 14 9 0 7 -4 11 -8 8 -4 -2&#xA;-10 6 -12 18 -4 21 -4 20 -6 -3z"/>
<path d="M6520 1811 c0 -6 5 -13 10 -16 6 -3 10 1 10 9 0 9 -4 16 -10 16 -5 0&#xA;-10 -4 -10 -9z"/>
<path d="M6480 1745 c0 -9 5 -15 11 -13 6 2 11 8 11 13 0 5 -5 11 -11 13 -6 2&#xA;-11 -4 -11 -13z"/>
<path d="M5980 1730 c0 -5 9 -10 20 -10 11 0 20 5 20 10 0 6 -9 10 -20 10 -11&#xA;0 -20 -4 -20 -10z"/>
<path d="M6007 1703 c-10 -9 -9 -23 1 -23 5 0 9 7 9 15 0 17 -1 18 -10 8z"/>
<path d="M6490 1670 c0 -5 5 -10 10 -10 6 0 10 5 10 10 0 6 -4 10 -10 10 -5 0&#xA;-10 -4 -10 -10z"/>
<path d="M5971 1606 c-12 -21 -11 -27 8 -47 16 -17 18 -25 9 -31 -10 -6 -10&#xA;-8 -1 -8 21 0 26 21 9 39 -19 21 -21 38 -3 44 8 3 9 8 1 16 -8 8 -14 5 -23&#xA;-13z"/>
<path d="M5954 1435 c6 -13 13 -20 14 -15 2 6 8 8 13 4 21 -12 7 5 -15 19 -23&#xA;16 -23 15 -12 -8z"/>
<path d="M5940 1395 c0 -2 14 -11 30 -20 17 -9 30 -22 30 -31 0 -8 5 -12 10&#xA;-9 18 11 11 23 -26 44 -36 22 -44 24 -44 16z"/>
<path d="M5961 1251 c13 -11 28 -17 32 -14 10 6 -23 32 -42 33 -7 0 -3 -8 10&#xA;-19z"/>
<path d="M5954 1154 c3 -9 6 -18 6 -20 0 -2 5 -4 10 -4 6 0 10 9 10 20 0 12&#xA;-7 20 -16 20 -11 0 -14 -5 -10 -16z"/>
<path d="M5973 1093 c-15 -5 -17 -23 -4 -23 5 0 11 7 15 15 3 8 4 15 3 14 -1&#xA;0 -8 -3 -14 -6z"/>
<path d="M5932 1047 c-8 -10 -6 -16 9 -25 11 -7 19 -8 19 -2 0 5 -5 10 -11 10&#xA;-6 0 -9 7 -5 15 7 18 2 19 -12 2z"/>
<path d="M5985 900 c-3 -5 -1 -10 4 -10 6 0 11 5 11 10 0 6 -2 10 -4 10 -3 0&#xA;-8 -4 -11 -10z"/>
<path d="M6005 850 c3 -5 8 -10 11 -10 2 0 4 5 4 10 0 6 -5 10 -11 10 -5 0 -7&#xA;-4 -4 -10z"/>
<path d="M5955 790 c-8 -13 -1 -24 14 -19 6 3 7 10 2 18 -6 10 -10 10 -16 1z"/>
<path d="M6502 735 c2 -14 8 -26 13 -26 6 0 11 12 13 26 2 18 -1 25 -13 25&#xA;-12 0 -15 -7 -13 -25z"/>
<path d="M6472 624 c-12 -8 -22 -22 -22 -30 0 -21 17 -17 23 6 3 11 11 19 17&#xA;18 7 -2 15 3 17 10 6 16 -8 15 -35 -4z"/>
<path d="M6307 623 c-4 -3 -7 -12 -7 -20 0 -11 4 -11 19 -1 11 7 17 16 15 20&#xA;-6 10 -18 10 -27 1z"/>
<path d="M6110 609 c0 -5 5 -7 10 -4 6 3 10 8 10 11 0 2 -4 4 -10 4 -5 0 -10&#xA;-5 -10 -11z"/>
<path d="M6364 605 c24 -18 39 -20 34 -2 -3 6 -15 13 -29 15 -23 2 -23 2 -5&#xA;-13z"/>
<path d="M6233 585 c-6 -14 -7 -27 -2 -31 5 -3 9 2 9 10 0 9 5 16 10 16 6 0&#xA;10 7 10 15 0 23 -14 18 -27 -10z"/>
<path d="M6057 586 c-17 -13 -16 -14 7 -12 15 0 26 7 26 14 0 15 -10 15 -33&#xA;-2z"/>
<path d="M6065 550 c-3 -5 -1 -10 4 -10 6 0 11 5 11 10 0 6 -2 10 -4 10 -3 0&#xA;-8 -4 -11 -10z"/>
<path d="M5945 540 c3 -5 8 -10 11 -10 2 0 4 5 4 10 0 6 -5 10 -11 10 -5 0 -7&#xA;-4 -4 -10z"/>
<path d="M5983 533 c-15 -5 -17 -39 -4 -48 5 -3 13 0 16 6 4 5 13 8 20 5 14&#xA;-5 29 20 19 35 -6 10 -31 11 -51 2z"/>
</g>
</svg>