<?xml version="1.0" standalone="no"?>
<!DOCTYPE svg PUBLIC "-//W3C//DTD SVG 20010904//EN"
 "http://www.w3.org/TR/2001/REC-SVG-20010904/DTD/svg10.dtd">
<svg version="1.0" xmlns="http://www.w3.org/2000/svg"
 width="666.000000pt" height="340.000000pt" viewBox="0 0 666.000000 340.000000"
 preserveAspectRatio="xMidYMid meet">

<g transform="translate(0.000000,340.000000) scale(0.100000,-0.100000)"
fill="#000000" stroke="none">
<path d="M350 3251 c-19 -10 -48 -35 -65 -55 l-30 -38 -3 -412 -3 -413 43 -12
c164 -50 296 -159 373 -310 41 -81 55 -137 62 -236 11 -173 -51 -331 -181
-460 -74 -73 -183 -137 -258 -150 l-38 -7 0 -393 c0 -417 2 -438 49 -488 60
-66 -153 -60 2439 -59 2109 1 2354 3 2374 16 31 22 80 20 111 -4 24 -19 40
-20 502 -20 328 0 490 4 522 12 61 15 116 70 131 131 8 31 12 169 12 419 0
383 -1 398 -38 398 -8 0 -49 16 -91 36 -57 28 -94 56 -156 118 -124 124 -175
248 -175 419 0 108 20 189 68 282 68 129 190 234 335 287 l57 21 0 381 c0 248
-4 395 -11 421 -16 55 -44 92 -89 115 -38 19 -61 20 -547 20 -431 -1 -511 -3
-527 -15 -25 -19 -85 -19 -110 0 -17 13 -319 15 -2371 15 -2270 0 -2351 -1
-2385 -19z m4884 -212 c23 -26 27 -38 22 -67 -11 -70 -77 -108 -135 -78 -36
19 -51 44 -51 86 0 41 14 66 48 85 38 21 82 11 116 -26z m-9 -343 c48 -48 40
-122 -16 -151 -43 -23 -77 -18 -110 14 -62 63 -24 161 63 161 28 0 46 -7 63
-24z m-755 -147 c56 -25 86 -53 113 -104 22 -40 22 -41 21 -755 -1 -709 -1
-715 -22 -757 -28 -53 -83 -98 -138 -112 -60 -15 -2943 -15 -2998 0 -21 6 -58
29 -82 51 -77 71 -75 48 -72 844 3 774 -1 723 70 791 68 65 -34 62 1588 62
1464 1 1475 0 1520 -20z m739 -194 c57 -29 65 -115 14 -155 -94 -74 -208 57
-124 141 33 32 67 37 110 14z m25 -376 c23 -26 27 -38 23 -67 -11 -65 -65
-101 -123 -82 -42 14 -64 44 -64 88 0 43 14 68 48 87 38 21 82 11 116 -26z
m-11 -339 c75 -59 16 -183 -78 -166 -71 14 -101 110 -50 161 31 32 91 34 128
5z m-14 -345 c34 -17 56 -65 47 -101 -18 -72 -98 -96 -155 -48 -26 21 -31 33
-31 69 0 36 5 48 31 69 34 29 67 33 108 11z m18 -370 c31 -31 35 -40 30 -72
-9 -54 -41 -83 -94 -83 -57 0 -93 33 -93 85 0 46 13 71 48 89 43 24 71 19 109
-19z m-2 -347 c15 -14 28 -38 32 -60 5 -33 2 -41 -31 -74 -33 -33 -41 -36 -74
-31 -77 13 -111 109 -57 162 32 33 93 34 130 3z"/>
</g>
</svg>
